<svg width="1029" height="1182" viewBox="0 0 1029 1182" fill="none" xmlns="http://www.w3.org/2000/svg">
<g style="mix-blend-mode:overlay">
<path d="M670.366 422.859C667.438 431.097 654.381 431.739 650.54 439.594C647.988 444.813 652.552 450.853 653.916 456.501C658.328 474.769 673.916 492.815 667.674 510.542C663.591 522.139 643.77 522.322 632.077 518.522C619.393 514.4 609.823 502.315 604.594 490.045C599.811 478.82 615.303 459.534 604.512 453.839C589.745 446.046 571.602 470.719 556.121 464.464C546.887 460.733 561.009 444.383 557.787 434.96C552.726 420.156 518.262 401.978 532.683 395.912C555.799 386.189 585.949 432.152 604.521 415.302C622.843 398.679 576.115 363.106 590.792 343.191C601.888 328.137 608.116 380.998 626.147 385.96C639.919 389.75 648.487 356.894 661.553 362.664C673.867 368.103 661.756 389.23 663.706 402.549C664.749 409.676 672.778 416.071 670.366 422.859Z" fill="white" fill-opacity="0.10"/>
</g>
<g style="mix-blend-mode:overlay">
<path d="M626.466 89.8099C637.763 94.0609 655.891 98.6903 655.52 110.755C655.114 123.95 631.972 124.136 625.063 135.384C620.268 143.19 630.654 156.55 623.717 162.533C616.266 168.959 603.884 158.654 594.533 161.715C586.534 164.334 584.164 179.105 575.793 178.223C566.889 177.285 564.707 164.52 558.64 157.934C554.734 153.695 551.428 148.67 546.245 146.149C537.498 141.893 515.468 147.639 518.447 138.38C522.832 124.752 555.982 131.833 555.454 117.527C554.831 100.617 523.294 101.339 516.509 85.8372C512.03 75.6033 516.869 53.5075 527.972 54.735C546.585 56.7926 551.448 96.7957 569.464 91.6914C588.932 86.176 572.656 38.3457 592.794 36.3706C610.497 34.6343 588.054 73.8885 597.537 88.9381C602.737 97.1904 617.337 86.3749 626.466 89.8099Z" fill="white" fill-opacity="0.10"/>
</g>
<g style="mix-blend-mode:overlay">
<path d="M429.227 711.446C441.63 716.54 455.278 732.618 450.423 745.117C442.35 765.898 413.986 770.453 399.667 787.54C396.649 791.142 402.354 796.385 403.68 800.893C406.156 809.315 415.518 818.411 410.949 825.907C406.891 832.564 392.285 820.484 387.836 826.887C376.671 842.955 386.641 870.163 371.547 882.614C361.784 890.666 340.226 881.351 336.446 869.274C330.42 850.02 348.679 830.924 349.055 810.752C349.148 805.805 341.006 805.122 337.712 801.428C333.393 796.586 330.269 791.054 326.67 785.655C319.054 774.228 305.929 765.159 304.438 751.509C303.101 739.276 306.993 718.445 319.295 718.155C337.582 717.724 344.866 749.883 363.156 750.124C376.345 750.298 375.562 725.71 386.946 719.047C399.44 711.732 415.835 705.946 429.227 711.446Z" fill="white" fill-opacity="0.10"/>
</g>
<g style="mix-blend-mode:overlay">
<path d="M811.226 982.531C805.197 992.989 797.687 1010.12 785.842 1007.8C772.888 1005.26 776.462 982.392 766.485 973.748C759.561 967.75 744.692 975.829 739.914 968.013C734.783 959.617 746.961 949.072 745.459 939.349C744.173 931.031 729.983 926.294 732.212 918.178C734.583 909.543 747.534 909.463 755.016 904.545C759.834 901.38 765.328 898.933 768.658 894.228C774.277 886.288 772.184 863.617 780.837 868.06C793.572 874.599 781.203 906.16 795.405 907.962C812.192 910.092 816.6 878.856 832.997 874.678C843.822 871.92 864.839 880.281 861.826 891.038C856.774 909.07 816.512 907.374 818.623 925.98C820.905 946.085 870.743 937.79 869.423 957.981C868.262 975.731 833.172 947.214 816.783 954.127C807.796 957.919 816.098 974.081 811.226 982.531Z" fill="white" fill-opacity="0.10"/>
</g>
<g style="mix-blend-mode:overlay">
<path d="M314.662 413.979C307.622 425.391 289.542 436.247 277.997 429.427C258.803 418.088 258.912 389.361 244.377 372.457C241.313 368.894 235.213 373.673 230.55 374.249C221.837 375.326 211.342 383.086 204.687 377.361C198.777 372.277 213.068 359.825 207.473 354.396C193.43 340.771 164.964 346.191 155.13 329.276C148.769 318.336 161.46 298.576 173.99 296.807C193.967 293.986 209.845 315.103 229.689 318.749C234.556 319.643 236.552 311.72 240.731 309.07C246.21 305.594 252.176 303.41 258.088 300.735C270.599 295.075 281.678 283.596 295.39 284.341C307.677 285.008 327.6 292.23 325.889 304.416C323.346 322.53 290.431 324.497 287.224 342.505C284.911 355.49 309.3 358.71 314.027 371.024C319.216 384.54 322.264 401.657 314.662 413.979Z" fill="white" fill-opacity="0.10"/>
</g>
</svg>
