<svg width="376" height="376" viewBox="0 0 376 376" fill="none" xmlns="http://www.w3.org/2000/svg">
<path d="M274.222 50.9706H108.226V216.967H274.222V50.9706Z" fill="#EBEBEB"/>
<path d="M301.468 256.815H163.805V320.303H301.468V256.815Z" fill="#F5F5F5"/>
<path d="M298.191 317.311H166.956V260.155H298.191V317.311ZM167.813 316.454H297.335V261.012H167.813V316.454Z" fill="#9F6A00"/>
<path d="M335.098 256.815H301.468V320.303H335.098V256.815Z" fill="#9F6A00"/>
<path d="M167.385 277.844C182.132 277.844 196.88 277.844 211.628 277.844C234.929 277.844 258.229 277.844 281.53 277.844C286.941 277.844 292.352 277.844 297.763 277.844C297.986 277.844 297.986 277.498 297.763 277.498C283.016 277.498 268.269 277.498 253.52 277.498C230.22 277.498 206.919 277.498 183.618 277.498C178.207 277.498 172.796 277.498 167.385 277.498C167.162 277.498 167.162 277.844 167.385 277.844Z" fill="#9F6A00"/>
<path d="M233 277.671C233.391 272.035 233.349 266.066 233.044 260.425C233.032 260.199 232.705 260.199 232.693 260.425C232.389 266.066 232.346 272.035 232.737 277.671C232.749 277.839 232.988 277.839 233 277.671Z" fill="#9F6A00"/>
<path d="M268.093 269.047C268.093 270.028 267.298 270.824 266.317 270.824C265.336 270.824 264.541 270.028 264.541 269.047C264.541 268.067 265.336 267.271 266.317 267.271C267.298 267.271 268.093 268.067 268.093 269.047Z" fill="#9F6A00"/>
<path d="M199.67 269.047C199.67 270.028 198.876 270.824 197.894 270.824C196.913 270.824 196.118 270.028 196.118 269.047C196.118 268.067 196.913 267.271 197.894 267.271C198.875 267.271 199.67 268.067 199.67 269.047Z" fill="#9F6A00"/>
<path d="M234.35 288.733C234.35 289.714 233.555 290.509 232.574 290.509C231.593 290.509 230.798 289.714 230.798 288.733C230.798 287.751 231.593 286.956 232.574 286.956C233.555 286.956 234.35 287.752 234.35 288.733Z" fill="#9F6A00"/>
<path d="M180.264 320.303L173.177 360.162H177.164L190.231 320.303H180.264Z" fill="#9F6A00"/>
<path d="M291.729 320.303L297.655 360.231H293.669L281.762 320.303H291.729Z" fill="#9F6A00"/>
<path d="M318.341 320.303L325.057 360.231H321.07L308.374 320.303H318.341Z" fill="#9F6A00"/>
<path d="M234.231 306.701C234.231 307.682 233.436 308.477 232.454 308.477C231.473 308.477 230.678 307.682 230.678 306.701C230.678 305.72 231.474 304.925 232.454 304.925C233.436 304.925 234.231 305.72 234.231 306.701Z" fill="#9F6A00"/>
<path d="M167.385 297.503C182.132 297.503 196.88 297.503 211.628 297.503C234.929 297.503 258.229 297.503 281.53 297.503C286.941 297.503 292.352 297.503 297.763 297.503C297.986 297.503 297.986 297.158 297.763 297.158C283.016 297.158 268.269 297.158 253.52 297.158C230.22 297.158 206.919 297.158 183.618 297.158C178.207 297.158 172.796 297.158 167.385 297.158C167.162 297.158 167.162 297.503 167.385 297.503Z" fill="#9F6A00"/>
<path d="M259.922 235.274L259.877 226.802L218.254 227.022L218.299 235.495L259.922 235.274Z" fill="#9F6A00"/>
<path d="M264.922 256.646L264.852 243.48L218.46 243.726L218.53 256.892L264.922 256.646Z" fill="#F5F5F5"/>
<path d="M255.983 256.546C255.859 256.546 255.758 253.599 255.758 249.964C255.758 246.327 255.858 243.38 255.983 243.38C256.107 243.38 256.208 246.327 256.208 249.964C256.208 253.599 256.107 256.546 255.983 256.546Z" fill="#9F6A00"/>
<path d="M257.932 256.546C257.808 256.546 257.707 253.599 257.707 249.964C257.707 246.327 257.808 243.38 257.932 243.38C258.056 243.38 258.156 246.327 258.156 249.964C258.157 253.599 258.056 256.546 257.932 256.546Z" fill="#9F6A00"/>
<path d="M225.509 256.546C225.385 256.546 225.284 253.599 225.284 249.964C225.284 246.327 225.385 243.38 225.509 243.38C225.633 243.38 225.734 246.327 225.734 249.964C225.735 253.599 225.634 256.546 225.509 256.546Z" fill="#9F6A00"/>
<path d="M227.459 256.546C227.334 256.546 227.233 253.599 227.233 249.964C227.233 246.327 227.334 243.38 227.459 243.38C227.583 243.38 227.683 246.327 227.683 249.964C227.683 253.599 227.583 256.546 227.459 256.546Z" fill="#9F6A00"/>
<path d="M231.71 250.175C231.71 250.049 236.391 249.948 242.163 249.948C247.937 249.948 252.617 250.049 252.617 250.175C252.617 250.301 247.937 250.403 242.163 250.403C236.391 250.404 231.71 250.302 231.71 250.175Z" fill="#9F6A00"/>
<path d="M282.346 243.406L282.301 234.933L225.055 235.237L225.1 243.709L282.346 243.406Z" fill="#EBEBEB"/>
<path d="M274.146 242.346C272.651 242.346 271.441 241.118 271.441 239.605C271.441 238.092 272.652 236.865 274.146 236.865C275.64 236.865 276.851 238.091 276.851 239.605C276.851 241.119 275.64 242.346 274.146 242.346Z" fill="#9F6A00"/>
<path d="M266.705 240.453V238.758H228.385V240.453H266.705Z" fill="#9F6A00"/>
<path d="M264.772 41.2336H98.7751V207.23H264.772V41.2336Z" fill="#FFE1D9"/>
<path d="M264.772 207.229C264.77 205.784 264.704 140.752 264.602 41.2329L264.772 41.4021C216.526 41.4096 159.565 41.4186 98.7917 41.4284H98.7759L98.9714 41.2329C98.9616 102.019 98.9526 158.985 98.9451 207.229L98.7759 207.06C198.307 207.162 263.326 207.228 264.772 207.229C263.327 207.231 198.307 207.297 98.7751 207.399H98.6059V207.229C98.5984 158.985 98.5894 102.02 98.5796 41.2329V41.0366H98.7759H98.7917C159.565 41.0464 216.526 41.0554 264.772 41.0629H264.941V41.2321C264.839 140.752 264.773 205.785 264.772 207.229Z" fill="#263238"/>
<path d="M243.23 118.749H183.371C179.5 118.749 176.361 115.61 176.361 111.739C176.361 107.868 179.5 104.729 183.371 104.729H243.23C247.101 104.729 250.24 107.868 250.24 111.739C250.24 115.611 247.101 118.749 243.23 118.749Z" fill="#A06A00"/>
<g opacity="0.6">
<path d="M243.23 118.749H183.371C179.5 118.749 176.361 115.61 176.361 111.739C176.361 107.868 179.5 104.729 183.371 104.729H243.23C247.101 104.729 250.24 107.868 250.24 111.739C250.24 115.611 247.101 118.749 243.23 118.749Z" fill="#FFE1D9"/>
</g>
<path d="M217.383 138.251H116.714C112.843 138.251 109.704 135.113 109.704 131.241C109.704 127.369 112.843 124.231 116.714 124.231H217.383C221.255 124.231 224.394 127.37 224.394 131.241C224.394 135.113 221.255 138.251 217.383 138.251Z" fill="#A06A00"/>
<g opacity="0.6">
<path d="M217.383 138.251H116.714C112.843 138.251 109.704 135.113 109.704 131.241C109.704 127.369 112.843 124.231 116.714 124.231H217.383C221.255 124.231 224.394 127.37 224.394 131.241C224.394 135.113 221.255 138.251 217.383 138.251Z" fill="#FFE1D9"/>
</g>
<path d="M186.836 116.414C189.417 113.457 189.112 108.967 186.155 106.385C183.197 103.804 178.707 104.109 176.125 107.066C173.544 110.024 173.849 114.514 176.806 117.095C179.764 119.677 184.254 119.372 186.836 116.414Z" fill="#A06A00"/>
<path d="M228.767 132.889C229.673 129.07 227.311 125.239 223.491 124.333C219.672 123.428 215.841 125.79 214.935 129.61C214.03 133.429 216.392 137.26 220.212 138.165C224.031 139.071 227.862 136.709 228.767 132.889Z" fill="#A06A00"/>
<path d="M262.721 78.1463C262.721 78.2546 226.807 78.3418 182.515 78.3418C138.208 78.3418 102.301 78.2539 102.301 78.1463C102.301 78.038 138.208 77.9508 182.515 77.9508C226.807 77.9508 262.721 78.038 262.721 78.1463Z" fill="#E0E0E0"/>
<path d="M117.216 93.4555L117.21 90.9446L115.979 93.0126H115.542L114.317 90.998V93.4555H113.408V89.2706H114.209L115.775 91.871L117.318 89.2706H118.113L118.125 93.4555H117.216Z" fill="#263238"/>
<path d="M118.817 91.8469C118.817 90.8784 119.565 90.191 120.587 90.191C121.609 90.191 122.35 90.8784 122.35 91.8469C122.35 92.8155 121.609 93.5028 120.587 93.5028C119.564 93.5036 118.817 92.8163 118.817 91.8469ZM121.406 91.8469C121.406 91.2912 121.053 90.9558 120.587 90.9558C120.121 90.9558 119.762 91.2905 119.762 91.8469C119.762 92.4027 120.121 92.7381 120.587 92.7381C121.053 92.7381 121.406 92.4034 121.406 91.8469Z" fill="#263238"/>
<path d="M126.263 91.6138V93.4555H125.33V91.7574C125.33 91.2378 125.091 90.9979 124.678 90.9979C124.23 90.9979 123.908 91.2732 123.908 91.865V93.4555H122.975V90.2392H123.866V90.6159C124.117 90.3407 124.494 90.1918 124.93 90.1918C125.689 90.191 126.263 90.634 126.263 91.6138Z" fill="#263238"/>
<path d="M135.977 90.0595H134.638V89.2706H138.285V90.0595H136.946V93.4555H135.977V90.0595Z" fill="#263238"/>
<path d="M141.911 90.2392V93.4555H141.025V93.0727C140.78 93.3539 140.422 93.5028 140.027 93.5028C139.22 93.5028 138.651 93.0486 138.651 92.056V90.2384H139.584V91.9184C139.584 92.4561 139.823 92.6952 140.236 92.6952C140.666 92.6952 140.977 92.42 140.977 91.8281V90.2384L141.911 90.2392Z" fill="#263238"/>
<path d="M145.913 92.1101H143.48C143.569 92.511 143.91 92.7554 144.4 92.7554C144.741 92.7554 144.986 92.6538 145.207 92.4448L145.704 92.9832C145.405 93.3239 144.956 93.5028 144.376 93.5028C143.264 93.5028 142.542 92.8035 142.542 91.8469C142.542 90.8844 143.277 90.191 144.258 90.191C145.202 90.191 145.932 90.825 145.932 91.859C145.931 91.9304 145.919 92.0327 145.913 92.1101ZM143.468 91.5657H145.052C144.986 91.1596 144.681 90.8964 144.263 90.8964C143.839 90.8964 143.534 91.1536 143.468 91.5657Z" fill="#263238"/>
<path d="M141.337 109.417V113.602H140.907V109.8H139.92V109.417H141.337Z" fill="black"/>
<path d="M162.698 113.219V113.602H159.763V113.297L161.503 111.593C161.975 111.127 162.065 110.846 162.065 110.559C162.065 110.075 161.724 109.775 161.084 109.775C160.594 109.775 160.217 109.925 159.942 110.242L159.637 109.978C159.96 109.596 160.48 109.381 161.12 109.381C161.969 109.381 162.507 109.812 162.507 110.511C162.507 110.911 162.382 111.27 161.82 111.82L160.397 113.219H162.698Z" fill="black"/>
<path d="M182.902 112.4C182.902 113.099 182.394 113.638 181.383 113.638C180.779 113.638 180.199 113.429 179.877 113.099L180.086 112.759C180.355 113.04 180.839 113.243 181.383 113.243C182.076 113.243 182.459 112.92 182.459 112.4C182.459 111.898 182.106 111.569 181.33 111.569H181.031V111.252L182.191 109.8H180.05V109.417H182.74V109.721L181.557 111.21C182.454 111.258 182.902 111.731 182.902 112.4Z" fill="black"/>
<path d="M203.683 112.501H202.847V113.602H202.416V112.501H200.054V112.191L202.272 109.417H202.75L200.61 112.119H202.428V111.15H202.847V112.119H203.683V112.501Z" fill="black"/>
<path d="M121.282 129.783V130.088L119.53 133.968H119.064L120.786 130.166H118.634V130.95H118.209V129.784H121.282V129.783Z" fill="black"/>
<path d="M141.921 132.802C141.921 133.544 141.293 134.004 140.294 134.004C139.291 134.004 138.681 133.544 138.681 132.802C138.681 132.301 138.967 131.947 139.488 131.774C139.063 131.607 138.83 131.29 138.83 130.853C138.83 130.172 139.41 129.747 140.294 129.747C141.18 129.747 141.771 130.171 141.771 130.853C141.771 131.29 141.532 131.607 141.101 131.774C141.628 131.947 141.921 132.306 141.921 132.802ZM141.479 132.796C141.479 132.282 141.037 131.959 140.295 131.959C139.554 131.959 139.118 132.282 139.118 132.796C139.118 133.316 139.554 133.639 140.295 133.639C141.036 133.639 141.479 133.317 141.479 132.796ZM140.295 131.619C140.947 131.619 141.335 131.326 141.335 130.871C141.335 130.399 140.923 130.113 140.295 130.113C139.662 130.113 139.261 130.399 139.261 130.865C139.261 131.326 139.643 131.619 140.295 131.619Z" fill="black"/>
<path d="M162.334 131.84C162.334 133.263 161.557 134.004 160.421 134.004C160.044 134.004 159.692 133.939 159.428 133.777L159.601 133.43C159.816 133.573 160.104 133.627 160.414 133.627C161.317 133.627 161.897 133.048 161.897 131.911C161.897 131.816 161.891 131.696 161.879 131.571C161.67 132.031 161.18 132.288 160.6 132.288C159.769 132.288 159.189 131.798 159.189 131.032C159.189 130.249 159.805 129.747 160.618 129.747C161.73 129.747 162.334 130.519 162.334 131.84ZM161.742 131.009C161.742 130.549 161.359 130.113 160.636 130.113C160.032 130.113 159.614 130.465 159.614 131.021C159.614 131.571 160.02 131.924 160.666 131.924C161.306 131.923 161.742 131.529 161.742 131.009Z" fill="black"/>
<path d="M179.76 129.784V133.969H179.329V130.167H178.343V129.784H179.76Z" fill="black"/>
<path d="M180.76 131.876C180.76 130.543 181.459 129.747 182.428 129.747C183.396 129.747 184.102 130.543 184.102 131.876C184.102 133.209 183.396 134.004 182.428 134.004C181.459 134.005 180.76 133.209 180.76 131.876ZM183.659 131.876C183.659 130.758 183.157 130.142 182.428 130.142C181.698 130.142 181.196 130.758 181.196 131.876C181.196 132.993 181.698 133.609 182.428 133.609C183.157 133.609 183.659 132.994 183.659 131.876Z" fill="black"/>
<path d="M201.184 129.784V133.969H200.754V130.167H199.768V129.784H201.184Z" fill="black"/>
<path d="M203.344 129.784V133.969H202.914V130.167H201.928V129.784H203.344Z" fill="black"/>
<path d="M221.088 129.783V133.968H220.658V130.166H219.672V129.783H221.088Z" fill="black"/>
<path d="M224.945 133.585V133.968H222.01V133.663L223.75 131.959C224.222 131.493 224.312 131.212 224.312 130.925C224.312 130.441 223.971 130.142 223.331 130.142C222.841 130.142 222.464 130.292 222.189 130.608L221.884 130.345C222.207 129.962 222.727 129.747 223.367 129.747C224.216 129.747 224.754 130.178 224.754 130.877C224.754 131.277 224.628 131.636 224.067 132.187L222.644 133.585H224.945Z" fill="black"/>
<path d="M241.623 129.784V133.969H241.193V130.167H240.207V129.784H241.623Z" fill="black"/>
<path d="M245.39 132.767C245.39 133.466 244.882 134.005 243.873 134.005C243.269 134.005 242.689 133.796 242.366 133.466L242.575 133.126C242.844 133.407 243.328 133.61 243.873 133.61C244.566 133.61 244.949 133.287 244.949 132.767C244.949 132.265 244.596 131.936 243.819 131.936H243.52V131.62L244.68 130.167H242.539V129.784H245.229V130.088L244.046 131.577C244.942 131.625 245.39 132.097 245.39 132.767Z" fill="black"/>
<path d="M119.488 150.035V154.219H119.058V150.417H118.072V150.035H119.488Z" fill="black"/>
<path d="M124.045 153.119H123.208V154.219H122.778V153.119H120.416V152.809L122.635 150.035H123.113L120.973 152.736H122.79V151.768H123.209V152.736H124.046V153.119H124.045Z" fill="black"/>
<path d="M140.23 150.035V154.219H139.8V150.417H138.813V150.035H140.23Z" fill="black"/>
<path d="M144.07 152.988C144.07 153.699 143.573 154.256 142.551 154.256C141.947 154.256 141.374 154.046 141.05 153.717L141.259 153.376C141.529 153.658 142.007 153.861 142.545 153.861C143.256 153.861 143.633 153.514 143.633 153.006C143.633 152.468 143.298 152.133 142.234 152.133H141.343L141.558 150.035H143.848V150.417H141.935L141.791 151.751H142.329C143.591 151.751 144.07 152.246 144.07 152.988Z" fill="black"/>
<path d="M160.559 150.035V154.219H160.128V150.417H159.142V150.035H160.559Z" fill="black"/>
<path d="M164.704 152.97C164.704 153.753 164.088 154.255 163.275 154.255C162.163 154.255 161.56 153.484 161.56 152.163C161.56 150.74 162.336 149.998 163.473 149.998C163.849 149.998 164.202 150.065 164.465 150.226L164.292 150.572C164.077 150.429 163.79 150.375 163.479 150.375C162.576 150.375 161.996 150.955 161.996 152.091C161.996 152.187 162.002 152.306 162.014 152.432C162.223 151.972 162.713 151.714 163.293 151.714C164.123 151.714 164.704 152.205 164.704 152.97ZM164.279 152.982C164.279 152.432 163.872 152.078 163.227 152.078C162.587 152.078 162.151 152.473 162.151 152.993C162.151 153.453 162.533 153.89 163.257 153.89C163.861 153.891 164.279 153.538 164.279 152.982Z" fill="black"/>
<path d="M181.075 150.035V154.219H180.645V150.417H179.659V150.035H181.075Z" fill="black"/>
<path d="M185.029 150.035V150.339L183.277 154.219H182.81L184.532 150.417H182.38V151.201H181.956V150.035L185.029 150.035Z" fill="black"/>
<path d="M201.387 150.035V154.219H200.957V150.417H199.97V150.035H201.387Z" fill="black"/>
<path d="M205.603 153.053C205.603 153.795 204.975 154.255 203.978 154.255C202.973 154.255 202.363 153.795 202.363 153.053C202.363 152.551 202.65 152.198 203.17 152.025C202.746 151.857 202.513 151.541 202.513 151.104C202.513 150.423 203.092 149.998 203.977 149.998C204.862 149.998 205.454 150.422 205.454 151.104C205.454 151.541 205.215 151.857 204.784 152.025C205.31 152.198 205.603 152.557 205.603 153.053ZM205.161 153.047C205.161 152.533 204.718 152.21 203.978 152.21C203.237 152.21 202.8 152.533 202.8 153.047C202.8 153.567 203.237 153.89 203.978 153.89C204.718 153.89 205.161 153.567 205.161 153.047ZM203.978 151.869C204.629 151.869 205.018 151.577 205.018 151.122C205.018 150.65 204.606 150.363 203.978 150.363C203.344 150.363 202.944 150.65 202.944 151.116C202.944 151.577 203.326 151.869 203.978 151.869Z" fill="black"/>
<path d="M221.932 150.035V154.219H221.502V150.417H220.515V150.035H221.932Z" fill="black"/>
<path d="M225.95 152.091C225.95 153.514 225.173 154.255 224.037 154.255C223.66 154.255 223.307 154.19 223.045 154.028L223.217 153.682C223.433 153.825 223.72 153.879 224.03 153.879C224.934 153.879 225.513 153.299 225.513 152.163C225.513 152.067 225.507 151.948 225.496 151.822C225.287 152.282 224.796 152.539 224.217 152.539C223.386 152.539 222.806 152.049 222.806 151.284C222.806 150.501 223.421 149.998 224.234 149.998C225.346 149.998 225.95 150.77 225.95 152.091ZM225.358 151.26C225.358 150.8 224.976 150.364 224.252 150.364C223.648 150.364 223.23 150.717 223.23 151.272C223.23 151.822 223.636 152.175 224.282 152.175C224.922 152.175 225.358 151.78 225.358 151.26Z" fill="black"/>
<path d="M243.321 153.837V154.22H240.386V153.915L242.125 152.211C242.597 151.745 242.687 151.464 242.687 151.177C242.687 150.693 242.346 150.393 241.706 150.393C241.216 150.393 240.839 150.543 240.564 150.86L240.259 150.596C240.582 150.214 241.102 149.999 241.742 149.999C242.591 149.999 243.129 150.43 243.129 151.129C243.129 151.529 243.003 151.888 242.442 152.438L241.019 153.837H243.321Z" fill="black"/>
<path d="M243.837 152.127C243.837 150.793 244.538 149.998 245.506 149.998C246.474 149.998 247.179 150.793 247.179 152.127C247.179 153.459 246.474 154.255 245.506 154.255C244.537 154.255 243.837 153.46 243.837 152.127ZM246.737 152.127C246.737 151.008 246.235 150.392 245.505 150.392C244.775 150.392 244.274 151.008 244.274 152.127C244.274 153.244 244.775 153.86 245.505 153.86C246.235 153.86 246.737 153.245 246.737 152.127Z" fill="black"/>
<path d="M121.185 172.527V172.91H118.25V172.605L119.99 170.901C120.462 170.435 120.551 170.153 120.551 169.867C120.551 169.383 120.211 169.084 119.571 169.084C119.081 169.084 118.704 169.234 118.429 169.55L118.124 169.287C118.447 168.904 118.967 168.689 119.607 168.689C120.456 168.689 120.994 169.119 120.994 169.819C120.994 170.219 120.868 170.578 120.306 171.128L118.884 172.527H121.185Z" fill="black"/>
<path d="M122.886 168.724V172.909H122.456V169.107H121.47V168.724H122.886Z" fill="black"/>
<path d="M141.034 172.527V172.91H138.099V172.605L139.839 170.901C140.311 170.435 140.401 170.153 140.401 169.867C140.401 169.383 140.06 169.084 139.42 169.084C138.93 169.084 138.553 169.234 138.278 169.55L137.973 169.287C138.296 168.904 138.816 168.689 139.456 168.689C140.305 168.689 140.843 169.119 140.843 169.819C140.843 170.219 140.717 170.578 140.155 171.128L138.733 172.527H141.034Z" fill="black"/>
<path d="M144.432 172.527V172.91H141.497V172.605L143.236 170.901C143.709 170.435 143.798 170.153 143.798 169.867C143.798 169.383 143.457 169.084 142.817 169.084C142.327 169.084 141.95 169.234 141.676 169.55L141.371 169.287C141.694 168.904 142.214 168.689 142.854 168.689C143.703 168.689 144.241 169.119 144.241 169.819C144.241 170.219 144.115 170.578 143.554 171.128L142.131 172.527H144.432Z" fill="black"/>
<path d="M161.514 172.527V172.91H158.579V172.605L160.318 170.901C160.79 170.435 160.88 170.153 160.88 169.867C160.88 169.383 160.539 169.084 159.899 169.084C159.409 169.084 159.032 169.234 158.758 169.55L158.453 169.287C158.776 168.904 159.296 168.689 159.936 168.689C160.785 168.689 161.323 169.119 161.323 169.819C161.323 170.219 161.197 170.578 160.635 171.128L159.213 172.527H161.514Z" fill="black"/>
<path d="M164.823 171.707C164.823 172.407 164.314 172.945 163.304 172.945C162.7 172.945 162.12 172.736 161.797 172.407L162.006 172.066C162.276 172.347 162.76 172.55 163.304 172.55C163.997 172.55 164.38 172.228 164.38 171.707C164.38 171.205 164.027 170.876 163.249 170.876H162.951V170.56L164.111 169.107H161.97V168.724H164.66V169.029L163.477 170.518C164.374 170.566 164.823 171.038 164.823 171.707Z" fill="black"/>
<path d="M181.759 172.528V172.91H178.824V172.606L180.563 170.902C181.036 170.435 181.125 170.154 181.125 169.867C181.125 169.383 180.785 169.084 180.145 169.084C179.654 169.084 179.278 169.234 179.002 169.55L178.698 169.287C179.02 168.904 179.541 168.689 180.181 168.689C181.03 168.689 181.567 169.12 181.567 169.82C181.567 170.22 181.442 170.578 180.88 171.129L179.457 172.528H181.759Z" fill="black"/>
<path d="M185.719 171.81H184.882V172.91H184.451V171.81H182.09V171.5L184.308 168.725H184.787L182.647 171.427H184.464V170.459H184.883V171.427H185.72V171.81H185.719Z" fill="black"/>
<path d="M202.443 172.527V172.91H199.508V172.605L201.248 170.901C201.72 170.435 201.81 170.153 201.81 169.867C201.81 169.383 201.469 169.084 200.829 169.084C200.339 169.084 199.962 169.234 199.687 169.55L199.382 169.287C199.705 168.904 200.225 168.689 200.865 168.689C201.714 168.689 202.252 169.119 202.252 169.819C202.252 170.219 202.126 170.578 201.564 171.128L200.142 172.527H202.443Z" fill="black"/>
<path d="M205.823 171.678C205.823 172.389 205.327 172.946 204.304 172.946C203.7 172.946 203.126 172.737 202.804 172.407L203.013 172.067C203.281 172.348 203.76 172.551 204.298 172.551C205.009 172.551 205.386 172.204 205.386 171.696C205.386 171.158 205.051 170.823 203.987 170.823H203.096L203.311 168.724H205.601V169.107H203.688L203.544 170.44H204.083C205.345 170.44 205.823 170.936 205.823 171.678Z" fill="black"/>
<path d="M222.794 172.527V172.91H219.858V172.605L221.599 170.901C222.071 170.435 222.16 170.153 222.16 169.867C222.16 169.383 221.82 169.084 221.18 169.084C220.689 169.084 220.313 169.234 220.037 169.55L219.733 169.287C220.056 168.904 220.576 168.689 221.216 168.689C222.065 168.689 222.603 169.119 222.603 169.819C222.603 170.219 222.477 170.578 221.915 171.128L220.492 172.527H222.794Z" fill="black"/>
<path d="M226.455 171.66C226.455 172.443 225.839 172.946 225.026 172.946C223.914 172.946 223.311 172.174 223.311 170.853C223.311 169.43 224.088 168.689 225.224 168.689C225.6 168.689 225.954 168.755 226.216 168.916L226.043 169.262C225.828 169.119 225.541 169.065 225.23 169.065C224.327 169.065 223.747 169.645 223.747 170.781C223.747 170.877 223.753 170.996 223.764 171.122C223.974 170.662 224.465 170.405 225.044 170.405C225.875 170.404 226.455 170.894 226.455 171.66ZM226.031 171.672C226.031 171.122 225.624 170.769 224.979 170.769C224.339 170.769 223.902 171.163 223.902 171.683C223.902 172.143 224.285 172.58 225.008 172.58C225.612 172.58 226.031 172.228 226.031 171.672Z" fill="black"/>
<path d="M243.321 172.527V172.91H240.386V172.605L242.125 170.901C242.597 170.435 242.687 170.153 242.687 169.867C242.687 169.383 242.346 169.084 241.706 169.084C241.216 169.084 240.839 169.234 240.564 169.55L240.259 169.287C240.582 168.904 241.102 168.689 241.742 168.689C242.591 168.689 243.129 169.119 243.129 169.819C243.129 170.219 243.003 170.578 242.442 171.128L241.019 172.527H243.321Z" fill="black"/>
<path d="M246.79 168.724V169.029L245.039 172.909H244.573L246.294 169.107H244.142V169.89H243.718V168.725L246.79 168.724Z" fill="black"/>
<path d="M121.185 190.428V190.81H118.25V190.506L119.99 188.802C120.462 188.336 120.551 188.054 120.551 187.768C120.551 187.284 120.211 186.985 119.571 186.985C119.081 186.985 118.704 187.135 118.429 187.451L118.124 187.188C118.447 186.805 118.967 186.59 119.607 186.59C120.456 186.59 120.994 187.02 120.994 187.72C120.994 188.121 120.868 188.479 120.306 189.029L118.884 190.428H121.185Z" fill="black"/>
<path d="M124.943 189.645C124.943 190.385 124.315 190.846 123.317 190.846C122.313 190.846 121.703 190.386 121.703 189.645C121.703 189.142 121.99 188.79 122.51 188.616C122.086 188.448 121.853 188.132 121.853 187.695C121.853 187.014 122.432 186.589 123.317 186.589C124.202 186.589 124.794 187.013 124.794 187.695C124.794 188.132 124.554 188.448 124.124 188.616C124.65 188.79 124.943 189.148 124.943 189.645ZM124.5 189.638C124.5 189.124 124.058 188.802 123.317 188.802C122.576 188.802 122.139 189.124 122.139 189.638C122.139 190.158 122.575 190.481 123.317 190.481C124.058 190.481 124.5 190.158 124.5 189.638ZM123.317 188.461C123.969 188.461 124.357 188.168 124.357 187.713C124.357 187.241 123.945 186.954 123.317 186.954C122.683 186.954 122.283 187.241 122.283 187.707C122.283 188.168 122.665 188.461 123.317 188.461Z" fill="black"/>
<path d="M142.145 190.428V190.81H139.21V190.506L140.95 188.802C141.422 188.336 141.512 188.054 141.512 187.768C141.512 187.284 141.171 186.985 140.531 186.985C140.041 186.985 139.664 187.135 139.389 187.451L139.084 187.188C139.407 186.805 139.927 186.59 140.567 186.59C141.416 186.59 141.954 187.02 141.954 187.72C141.954 188.121 141.829 188.479 141.267 189.029L139.844 190.428H142.145Z" fill="black"/>
<path d="M145.705 188.682C145.705 190.104 144.928 190.846 143.792 190.846C143.415 190.846 143.063 190.779 142.799 190.618L142.972 190.271C143.187 190.415 143.475 190.469 143.785 190.469C144.688 190.469 145.268 189.889 145.268 188.753C145.268 188.657 145.262 188.538 145.25 188.413C145.041 188.872 144.551 189.129 143.971 189.129C143.14 189.129 142.56 188.64 142.56 187.874C142.56 187.092 143.176 186.589 143.989 186.589C145.101 186.59 145.705 187.361 145.705 188.682ZM145.113 187.851C145.113 187.392 144.73 186.955 144.006 186.955C143.403 186.955 142.984 187.308 142.984 187.864C142.984 188.414 143.391 188.766 144.036 188.766C144.676 188.766 145.113 188.371 145.113 187.851Z" fill="black"/>
<path d="M162.781 189.608C162.781 190.308 162.273 190.845 161.262 190.845C160.658 190.845 160.078 190.636 159.756 190.307L159.965 189.966C160.234 190.248 160.718 190.451 161.262 190.451C161.955 190.451 162.338 190.128 162.338 189.608C162.338 189.106 161.985 188.777 161.208 188.777H160.909V188.461L162.069 187.008H159.929V186.625H162.618V186.93L161.435 188.419C162.333 188.467 162.781 188.938 162.781 189.608Z" fill="black"/>
<path d="M163.388 188.718C163.388 187.385 164.087 186.59 165.056 186.59C166.024 186.59 166.73 187.385 166.73 188.718C166.73 190.051 166.024 190.846 165.056 190.846C164.087 190.846 163.388 190.051 163.388 188.718ZM166.287 188.718C166.287 187.6 165.784 186.984 165.055 186.984C164.325 186.984 163.823 187.599 163.823 188.718C163.823 189.836 164.325 190.451 165.055 190.451C165.784 190.451 166.287 189.836 166.287 188.718Z" fill="black"/>
<path d="M184.554 189.609C184.554 190.308 184.045 190.846 183.035 190.846C182.431 190.846 181.851 190.637 181.528 190.307L181.737 189.967C182.007 190.248 182.491 190.452 183.035 190.452C183.728 190.452 184.111 190.128 184.111 189.609C184.111 189.106 183.758 188.778 182.98 188.778H182.681V188.461L183.841 187.008H181.701V186.625H184.39V186.93L183.207 188.419C184.105 188.467 184.554 188.939 184.554 189.609Z" fill="black"/>
<path d="M186.32 186.626V190.81H185.89V187.009H184.904V186.626H186.32Z" fill="black"/>
<path d="M223.532 112.371C223.532 113.082 223.036 113.638 222.014 113.638C221.409 113.638 220.836 113.429 220.513 113.1L220.722 112.759C220.991 113.041 221.469 113.244 222.007 113.244C222.718 113.244 223.095 112.897 223.095 112.389C223.095 111.851 222.76 111.516 221.696 111.516H220.805L221.02 109.417H223.31V109.8H221.397L221.253 111.134H221.791C223.054 111.133 223.532 111.629 223.532 112.371Z" fill="black"/>
<path d="M243.99 112.353C243.99 113.136 243.375 113.638 242.562 113.638C241.45 113.638 240.847 112.867 240.847 111.546C240.847 110.123 241.624 109.381 242.76 109.381C243.136 109.381 243.489 109.448 243.752 109.608L243.579 109.955C243.364 109.812 243.076 109.758 242.766 109.758C241.863 109.758 241.283 110.338 241.283 111.474C241.283 111.57 241.289 111.689 241.3 111.815C241.509 111.355 242 111.097 242.579 111.097C243.41 111.097 243.99 111.587 243.99 112.353ZM243.565 112.365C243.565 111.815 243.159 111.461 242.514 111.461C241.875 111.461 241.437 111.856 241.437 112.376C241.437 112.836 241.82 113.273 242.543 113.273C243.148 113.273 243.565 112.92 243.565 112.365Z" fill="black"/>
<path d="M160.493 89.2708L159.124 93.4556H158.084L157.163 90.6221L156.212 93.4556H155.177L153.802 89.2708H154.806L155.75 92.2126L156.736 89.2708H157.633L158.589 92.2359L159.564 89.2708H160.493Z" fill="#263238"/>
<path d="M163.864 92.111H161.43C161.52 92.5118 161.86 92.7562 162.351 92.7562C162.692 92.7562 162.936 92.6547 163.158 92.4449L163.654 92.9833C163.355 93.324 162.906 93.503 162.327 93.503C161.214 93.503 160.491 92.8036 160.491 91.8471C160.491 90.8845 161.226 90.1912 162.207 90.1912C163.152 90.1912 163.881 90.8251 163.881 91.8591C163.882 91.9313 163.87 92.0328 163.864 92.111ZM161.419 91.5666H163.003C162.937 91.1605 162.632 90.8973 162.214 90.8973C161.79 90.8973 161.484 91.1545 161.419 91.5666Z" fill="#263238"/>
<path d="M167.782 89.0195V93.4556H166.891V93.0848C166.658 93.3661 166.317 93.503 165.887 93.503C164.978 93.503 164.28 92.8577 164.28 91.8471C164.28 90.8371 164.979 90.1911 165.887 90.1911C166.282 90.1911 166.617 90.3167 166.85 90.5799V89.0195H167.782ZM166.868 91.8471C166.868 91.2913 166.509 90.9559 166.049 90.9559C165.583 90.9559 165.224 91.2906 165.224 91.8471C165.224 92.4028 165.583 92.7382 166.049 92.7382C166.509 92.7382 166.868 92.4035 166.868 91.8471Z" fill="#263238"/>
<path d="M176.91 90.0603H175.571V89.2715H179.218V90.0603H177.879V93.4564H176.91V90.0603Z" fill="#263238"/>
<path d="M182.963 91.6139V93.4556H182.031V91.7576C182.031 91.2379 181.791 90.998 181.379 90.998C180.93 90.998 180.608 91.2733 180.608 91.8651V93.4556H179.675V89.0195H180.608V90.5739C180.859 90.3235 181.218 90.1911 181.63 90.1911C182.389 90.1911 182.963 90.6341 182.963 91.6139Z" fill="#263238"/>
<path d="M187.049 90.2393V93.4556H186.164V93.0728C185.919 93.3533 185.56 93.503 185.165 93.503C184.359 93.503 183.79 93.0487 183.79 92.0561V90.2385H184.723V91.9185C184.723 92.4562 184.962 92.6953 185.375 92.6953C185.805 92.6953 186.116 92.4201 186.116 91.829V90.2385L187.049 90.2393Z" fill="#263238"/>
<path d="M199.498 90.0482V91.1544H201.435V91.9312H199.498V93.4555H198.529V89.2706H201.692V90.0482H199.498Z" fill="#263238"/>
<path d="M204.223 90.191V91.0521C204.146 91.0461 204.086 91.0401 204.014 91.0401C203.5 91.0401 203.159 91.3213 203.159 91.9372V93.4555H202.227V90.2392H203.118V90.6633C203.345 90.3527 203.728 90.191 204.223 90.191Z" fill="#263238"/>
<path d="M204.669 89.2706C204.669 88.9773 204.902 88.7502 205.249 88.7502C205.595 88.7502 205.829 88.9653 205.829 89.2526C205.829 89.5639 205.595 89.791 205.249 89.791C204.901 89.791 204.669 89.5639 204.669 89.2706ZM204.782 90.2392H205.714V93.4555H204.782V90.2392Z" fill="#263238"/>
<path d="M217.778 93.0434L218.108 92.314C218.46 92.5712 218.987 92.7509 219.488 92.7509C220.063 92.7509 220.295 92.5599 220.295 92.3027C220.295 91.5199 217.863 92.0576 217.863 90.5032C217.863 89.7918 218.437 89.2 219.627 89.2C220.152 89.2 220.691 89.3255 221.08 89.5707L220.781 90.3061C220.392 90.0851 219.991 89.9768 219.621 89.9768C219.047 89.9768 218.826 90.1918 218.826 90.455C218.826 91.2258 221.259 90.6942 221.259 92.2305C221.259 92.9299 220.678 93.5277 219.483 93.5277C218.819 93.527 218.149 93.3299 217.778 93.0434Z" fill="#263238"/>
<path d="M224.704 91.6206V93.4555H223.832V93.0547C223.659 93.348 223.324 93.5029 222.851 93.5029C222.098 93.5029 221.649 93.0848 221.649 92.5283C221.649 91.9605 222.05 91.5657 223.03 91.5657H223.771C223.771 91.1649 223.533 90.9318 223.03 90.9318C222.69 90.9318 222.337 91.0453 222.104 91.2303L221.769 90.5791C222.123 90.3279 222.642 90.1903 223.157 90.1903C224.137 90.1911 224.704 90.646 224.704 91.6206ZM223.772 92.4395V92.1109H223.132C222.696 92.1109 222.558 92.2718 222.558 92.4869C222.558 92.72 222.755 92.8757 223.084 92.8757C223.396 92.8757 223.664 92.7321 223.772 92.4395Z" fill="#263238"/>
<path d="M227.625 93.3006C227.433 93.4382 227.153 93.5037 226.866 93.5037C226.106 93.5037 225.664 93.1149 225.664 92.3501V91.0288H225.167V90.3114H225.664V89.5278H226.596V90.3114H227.396V91.0288H226.596V92.3381C226.596 92.6133 226.745 92.7622 226.996 92.7622C227.134 92.7622 227.271 92.7201 227.373 92.6426L227.625 93.3006Z" fill="#263238"/>
<path d="M237.378 93.0427L237.707 92.3133C238.06 92.5704 238.586 92.7502 239.088 92.7502C239.662 92.7502 239.895 92.5592 239.895 92.302C239.895 91.5184 237.462 92.0568 237.462 90.5024C237.462 89.791 238.036 89.1992 239.226 89.1992C239.752 89.1992 240.29 89.3248 240.679 89.57L240.38 90.3054C239.992 90.0836 239.591 89.976 239.22 89.976C238.646 89.976 238.425 90.1911 238.425 90.4543C238.425 91.2251 240.858 90.6934 240.858 92.2298C240.858 92.9291 240.277 93.527 239.082 93.527C238.418 93.527 237.748 93.33 237.378 93.0427Z" fill="#263238"/>
<path d="M244.698 90.2393V93.4556H243.813V93.0728C243.568 93.3541 243.209 93.503 242.815 93.503C242.008 93.503 241.44 93.0487 241.44 92.0561V90.2385H242.372V91.9185C242.372 92.4562 242.612 92.6953 243.024 92.6953C243.454 92.6953 243.764 92.4201 243.764 91.8283V90.2385L244.698 90.2393Z" fill="#263238"/>
<path d="M248.855 91.614V93.4556H247.924V91.7576C247.924 91.2379 247.684 90.9981 247.272 90.9981C246.823 90.9981 246.501 91.2733 246.501 91.8651V93.4556H245.568V90.2393H246.459V90.6153C246.71 90.3401 247.087 90.1912 247.523 90.1912C248.282 90.1912 248.855 90.6333 248.855 91.614Z" fill="#263238"/>
<path d="M287.672 331.437L289.491 348.969C289.491 348.969 272.281 356.708 272.302 359.98L306.424 357.673L304.71 330.239L287.672 331.437Z" fill="#455A64"/>
<g opacity="0.3">
<path d="M287.672 331.437L289.491 348.969C289.491 348.969 272.281 356.708 272.302 359.98L306.424 357.673L304.71 330.239L287.672 331.437Z" fill="black"/>
</g>
<g opacity="0.6">
<path d="M299.943 346.777C300.616 346.914 301.123 347.625 301.014 348.303C300.906 348.98 300.187 349.501 299.512 349.377C298.837 349.253 298.203 348.418 298.386 347.757C298.57 347.096 299.447 346.529 300.073 346.811" fill="#FFE1D9"/>
</g>
<g opacity="0.6">
<path d="M306.424 357.673L306.144 354.915L273.533 358.159C273.533 358.159 272.059 358.922 272.303 359.981L306.424 357.673Z" fill="#FFE1D9"/>
</g>
<path d="M288.927 348.833C288.944 349 289.782 349.019 290.638 349.499C291.507 349.957 291.978 350.65 292.127 350.573C292.278 350.531 291.962 349.551 290.916 348.988C289.875 348.416 288.881 348.682 288.927 348.833Z" fill="#263238"/>
<path d="M285.449 350.555C285.422 350.719 286.162 350.954 286.776 351.62C287.409 352.268 287.603 353.021 287.769 353.002C287.927 353.018 287.976 352.035 287.198 351.22C286.426 350.4 285.441 350.396 285.449 350.555Z" fill="#263238"/>
<path d="M283.706 354.976C283.86 355.001 284.035 354.153 283.545 353.269C283.062 352.382 282.252 352.075 282.191 352.219C282.106 352.363 282.645 352.817 283.036 353.549C283.444 354.272 283.539 354.97 283.706 354.976Z" fill="#263238"/>
<path d="M288.956 344.791C289.036 344.938 289.785 344.657 290.731 344.657C291.677 344.638 292.432 344.904 292.509 344.755C292.597 344.628 291.84 344.06 290.726 344.075C289.611 344.083 288.865 344.666 288.956 344.791Z" fill="#263238"/>
<path d="M288.654 341.247C288.657 341.316 289.322 341.374 290.362 341.123C290.88 340.997 291.485 340.784 292.113 340.453C292.426 340.287 292.745 340.092 293.059 339.866C293.209 339.754 293.389 339.639 293.548 339.429C293.721 339.243 293.796 338.793 293.564 338.537C293.372 338.287 293.055 338.194 292.808 338.205C292.557 338.214 292.357 338.279 292.174 338.338C291.8 338.456 291.452 338.605 291.136 338.774C290.504 339.115 290 339.525 289.631 339.915C288.888 340.701 288.66 341.342 288.72 341.371C288.799 341.42 289.149 340.873 289.913 340.213C290.295 339.885 290.787 339.539 291.38 339.251C291.677 339.109 291.999 338.982 292.34 338.882C292.695 338.763 293.002 338.739 293.106 338.894C293.144 338.954 293.15 338.978 293.081 339.088C293.01 339.191 292.87 339.297 292.722 339.407C292.433 339.624 292.141 339.816 291.854 339.984C291.279 340.319 290.723 340.56 290.245 340.729C289.285 341.068 288.645 341.158 288.654 341.247Z" fill="#263238"/>
<path d="M288.887 341.471C288.948 341.493 289.238 340.873 289.226 339.791C289.218 339.254 289.119 338.608 288.867 337.935C288.739 337.6 288.573 337.259 288.361 336.927C288.139 336.604 287.864 336.169 287.213 336.138C286.874 336.149 286.612 336.431 286.532 336.663C286.435 336.901 286.426 337.101 286.398 337.301C286.362 337.704 286.396 338.095 286.475 338.453C286.632 339.172 286.97 339.756 287.324 340.169C288.051 341.008 288.76 341.16 288.77 341.103C288.819 341.016 288.217 340.733 287.649 339.918C287.369 339.516 287.108 338.978 287 338.348C286.945 338.035 286.927 337.699 286.965 337.359C286.993 336.992 287.11 336.691 287.248 336.719C287.417 336.704 287.725 336.958 287.884 337.238C288.079 337.532 288.24 337.836 288.369 338.136C288.625 338.738 288.757 339.322 288.815 339.819C288.93 340.816 288.795 341.452 288.887 341.471Z" fill="#263238"/>
<path d="M284.141 206.268C284.141 206.268 267.351 271.278 266.888 277.405C266.425 283.531 287.868 336.89 287.868 336.89L304.387 333.771C304.387 333.771 303.337 255.655 302.802 254.123C302.266 252.592 307.023 214.201 307.023 214.201L284.141 206.268Z" fill="#263238"/>
<path d="M295.269 332.252L295.452 349.879C295.452 349.879 277.597 355.983 277.314 359.244L311.498 359.6L312.345 332.642L295.269 332.252Z" fill="#455A64"/>
<g opacity="0.6">
<path d="M306.061 348.667C306.718 348.865 307.156 349.621 306.986 350.285C306.815 350.95 306.051 351.402 305.39 351.216C304.73 351.029 304.176 350.138 304.42 349.497C304.664 348.856 305.591 348.374 306.187 348.713" fill="#FFE1D9"/>
</g>
<g opacity="0.6">
<path d="M311.498 359.6L311.479 357.345L278.709 357.545C278.709 357.545 277.169 358.168 277.314 359.244L311.498 359.6Z" fill="#FFE1D9"/>
</g>
<path d="M294.902 349.691C294.904 349.858 295.736 349.955 296.544 350.512C297.366 351.049 297.771 351.783 297.927 351.721C298.081 351.692 297.858 350.688 296.868 350.03C295.884 349.363 294.87 349.536 294.902 349.691Z" fill="#263238"/>
<path d="M291.278 351.082C291.236 351.243 291.952 351.545 292.501 352.265C293.071 352.969 293.194 353.737 293.361 353.734C293.518 353.764 293.658 352.79 292.958 351.907C292.266 351.018 291.286 350.923 291.278 351.082Z" fill="#263238"/>
<path d="M289.132 355.322C289.283 355.361 289.537 354.533 289.131 353.608C288.733 352.679 287.954 352.299 287.881 352.436C287.783 352.571 288.277 353.075 288.598 353.839C288.937 354.596 288.967 355.301 289.132 355.322Z" fill="#263238"/>
<path d="M295.306 345.669C295.372 345.823 296.144 345.612 297.086 345.7C298.03 345.77 298.755 346.105 298.846 345.964C298.946 345.846 298.245 345.209 297.134 345.121C296.024 345.024 295.228 345.536 295.306 345.669Z" fill="#263238"/>
<g opacity="0.3">
<path d="M295.31 335.743L295.338 338.884L312.145 339.161L312.239 336.334L295.31 335.743Z" fill="black"/>
</g>
<path d="M295.334 342.112C295.331 342.181 295.988 342.301 297.047 342.147C297.574 342.07 298.197 341.914 298.852 341.643C299.179 341.507 299.516 341.343 299.849 341.146C300.009 341.049 300.198 340.952 300.376 340.757C300.565 340.588 300.682 340.148 300.475 339.871C300.307 339.604 300 339.482 299.754 339.47C299.502 339.456 299.297 339.501 299.11 339.542C298.727 339.625 298.367 339.742 298.036 339.881C297.375 340.161 296.835 340.524 296.43 340.876C295.618 341.591 295.331 342.207 295.388 342.241C295.462 342.298 295.862 341.786 296.684 341.2C297.094 340.908 297.617 340.609 298.233 340.379C298.543 340.265 298.874 340.168 299.224 340.1C299.589 340.015 299.897 340.02 299.986 340.183C300.018 340.245 300.022 340.27 299.943 340.374C299.862 340.47 299.713 340.562 299.555 340.658C299.247 340.848 298.939 341.012 298.637 341.152C298.033 341.433 297.458 341.62 296.966 341.744C295.98 341.992 295.334 342.022 295.334 342.112Z" fill="#263238"/>
<path d="M295.546 342.357C295.605 342.384 295.951 341.795 296.04 340.715C296.082 340.179 296.043 339.527 295.854 338.834C295.758 338.488 295.624 338.133 295.444 337.783C295.253 337.44 295.02 336.982 294.374 336.891C294.037 336.87 293.749 337.126 293.647 337.35C293.528 337.579 293.501 337.777 293.455 337.974C293.382 338.371 293.379 338.763 293.425 339.126C293.513 339.857 293.796 340.47 294.111 340.914C294.756 341.817 295.448 342.034 295.463 341.978C295.521 341.895 294.947 341.558 294.458 340.694C294.216 340.268 294.007 339.708 293.957 339.071C293.931 338.753 293.945 338.418 294.013 338.083C294.076 337.72 294.22 337.431 294.355 337.471C294.525 337.473 294.807 337.754 294.939 338.047C295.107 338.359 295.238 338.675 295.34 338.987C295.538 339.61 295.617 340.204 295.628 340.703C295.65 341.709 295.456 342.329 295.546 342.357Z" fill="#263238"/>
<path d="M323.129 202.062L284.715 203.12L290.228 271.468L293.647 337.35L313.573 338.046C314.591 325.329 314.227 299.22 314.227 299.22L315.656 287.992L320.726 248.449C321.111 246.77 322.521 238.386 323.973 231.672C324.807 227.814 326.018 222.809 326.276 221.175C327.039 216.342 323.129 202.062 323.129 202.062Z" fill="#263238"/>
<path d="M286.952 218.848C286.959 218.848 286.96 218.952 286.957 219.155C286.951 219.376 286.943 219.673 286.932 220.053C286.901 220.863 286.856 222.021 286.799 223.504C286.732 225.002 286.656 226.836 286.593 228.965C286.526 231.094 286.423 233.518 286.374 236.199C286.229 241.559 286.15 247.944 286.175 255.032C286.229 262.12 286.399 269.912 286.797 278.083C287.217 286.255 287.836 294.026 288.538 301.081C288.924 304.604 289.267 307.955 289.691 311.079C289.895 312.642 290.069 314.155 290.278 315.602C290.489 317.05 290.693 318.439 290.887 319.766C291.252 322.422 291.681 324.808 292.02 326.911C292.353 329.015 292.681 330.819 292.96 332.293C293.223 333.753 293.429 334.894 293.573 335.691C293.636 336.066 293.685 336.359 293.722 336.577C293.754 336.777 293.767 336.88 293.76 336.882C293.753 336.883 293.728 336.783 293.683 336.586C293.637 336.37 293.575 336.079 293.495 335.707C293.334 334.912 293.104 333.775 292.809 332.322C292.509 330.852 292.157 329.05 291.805 326.949C291.444 324.848 290.996 322.463 290.613 319.807C290.411 318.48 290.2 317.091 289.979 315.644C289.761 314.195 289.58 312.683 289.369 311.12C288.931 307.995 288.576 304.643 288.179 301.117C287.457 294.058 286.826 286.281 286.406 278.102C286.007 269.925 285.848 262.126 285.814 255.033C285.808 247.939 285.916 241.552 286.098 236.19C286.165 233.508 286.286 231.084 286.374 228.956C286.458 226.827 286.557 224.994 286.647 223.496C286.735 222.015 286.805 220.857 286.853 220.048C286.881 219.669 286.902 219.372 286.917 219.152C286.933 218.951 286.945 218.847 286.952 218.848Z" fill="#455A64"/>
<path d="M319.25 64.5367C319.149 62.034 320.642 59.5366 322.894 58.4417C325.147 57.346 328.033 57.7138 329.939 59.3388C330.413 59.7427 330.845 60.2254 331.425 60.4526C332.12 60.7248 332.898 60.5811 333.643 60.5405C336.489 60.3834 339.365 61.9212 340.815 64.375C342.265 66.8295 342.224 70.0902 340.713 72.5071C343.436 73.3802 345.634 75.7309 346.322 78.5073C347.01 81.283 346.163 84.3887 344.161 86.4311C345.424 87.7426 345.962 89.7136 345.539 91.4853C345.115 93.2563 343.745 94.7716 342.025 95.3709C341.442 95.574 340.788 95.6988 340.369 96.1522C339.2 97.4164 340.945 99.6423 340.081 101.131C339.424 102.261 337.586 102.34 337.094 103.551C336.74 104.42 337.289 105.376 337.358 106.313C337.507 108.346 335.379 109.832 333.383 110.247C329.43 111.07 325.224 109.397 322.363 106.549C319.501 103.702 317.852 99.8235 317 95.877C314.998 86.6064 317.081 76.9981 319.158 67.7439" fill="#263238"/>
<path d="M316.194 67.3552C315.122 66.4806 314.998 64.6743 315.941 63.6621C316.884 62.6499 318.694 62.6439 319.643 63.6501C319.908 63.9306 320.153 64.2968 320.535 64.3434C320.899 64.387 321.215 64.1178 321.53 63.9291C322.35 63.438 323.455 63.4733 324.241 64.0148C325.028 64.5562 325.455 65.5767 325.289 66.5174C326.59 66.0399 328.347 66.2903 328.922 67.5514C329.435 68.6734 328.7 70.0646 327.606 70.6361C326.514 71.2077 325.198 71.1377 323.989 70.8963C321.108 70.3211 318.417 68.8291 316.404 66.6896" fill="#A06A00"/>
<path d="M324.114 67.8349C324.142 67.9056 324.569 67.7672 324.899 67.3483C325.231 66.9317 325.267 66.4843 325.192 66.4723C325.111 66.452 324.963 66.8099 324.673 67.1694C324.39 67.5341 324.075 67.7612 324.114 67.8349Z" fill="#FFE1D9"/>
<path d="M319.61 67.2732C319.695 67.2656 319.675 66.6437 319.909 65.9361C320.132 65.2247 320.511 64.7314 320.447 64.6765C320.399 64.6193 319.883 65.069 319.635 65.8481C319.381 66.6249 319.537 67.2912 319.61 67.2732Z" fill="#FFE1D9"/>
<path d="M317.215 66.5497C317.297 66.5294 317.168 65.909 317.35 65.1788C317.518 64.4456 317.914 63.9508 317.85 63.8952C317.806 63.8342 317.262 64.2937 317.07 65.1119C316.87 65.9278 317.147 66.5835 317.215 66.5497Z" fill="#FFE1D9"/>
<path d="M325.839 69.4855C325.846 69.5209 326.036 69.5284 326.322 69.4261C326.606 69.3269 326.98 69.0998 327.265 68.7238C327.55 68.3478 327.667 67.9251 327.686 67.6258C327.706 67.3228 327.647 67.1416 327.611 67.1446C327.528 67.1401 327.546 67.8808 327.035 68.5501C326.53 69.2231 325.812 69.4066 325.839 69.4855Z" fill="#FFE1D9"/>
<path d="M298.456 95.0836C296.601 94.4362 295.463 92.2117 296.024 90.328C293.849 88.7947 293.518 85.2407 295.372 83.3321C294.4 82.4034 294.064 80.8678 294.562 79.618C295.06 78.3689 296.359 77.4838 297.704 77.4786C297.21 75.9482 297.595 74.1668 298.677 72.9771C299.759 71.7874 301.496 71.2355 303.066 71.5829C302.898 69.9616 303.77 68.2801 305.192 67.483C306.613 66.6859 308.503 66.819 309.798 67.8071C312.006 65.1315 316.747 65.2149 318.859 67.9665C321.563 66.5091 325.394 67.9124 326.518 70.7707C328.313 69.269 331.266 69.9984 332.726 71.8273C334.187 73.6554 334.42 76.1941 334.109 78.5126C335.315 79.1442 336.135 80.4542 336.178 81.8146C336.221 83.175 335.485 84.5331 334.321 85.2399C336.339 88.0366 335.513 92.4546 332.621 94.3331C332.907 97.3351 331.17 100.428 328.456 101.746" fill="#263238"/>
<path d="M326.759 83.0728L327.88 80.3438L310.784 76.665C305.502 75.9784 299.65 81.1476 299.187 86.4538C298.673 92.3494 298.279 99.5671 298.873 103.989C300.067 112.881 306.845 113.094 306.845 113.094L306.618 128.088L326.248 121.034L326.759 83.0728Z" fill="#FFBE9D"/>
<path d="M301.215 92.7743C301.18 93.3736 301.658 93.8978 302.283 93.9466C302.907 93.9948 303.442 93.5503 303.479 92.9502C303.514 92.3509 303.036 91.826 302.412 91.7771C301.787 91.729 301.251 92.1749 301.215 92.7743Z" fill="#263238"/>
<path d="M300.97 90.2618C301.107 90.413 301.983 89.7971 303.206 89.8294C304.427 89.8445 305.309 90.495 305.445 90.3483C305.512 90.2836 305.375 90.0129 304.991 89.7189C304.613 89.4264 303.964 89.1353 303.203 89.1203C302.441 89.106 301.794 89.3715 301.419 89.6497C301.035 89.9295 300.902 90.1942 300.97 90.2618Z" fill="#263238"/>
<path d="M312.899 93.3676C312.863 93.967 313.342 94.4911 313.967 94.54C314.591 94.5881 315.127 94.1429 315.162 93.5436C315.198 92.9443 314.72 92.4194 314.096 92.3705C313.47 92.3216 312.934 92.7683 312.899 93.3676Z" fill="#263238"/>
<path d="M313.252 90.7672C313.39 90.9184 314.267 90.3025 315.488 90.3348C316.709 90.3499 317.591 91.0003 317.728 90.8537C317.794 90.789 317.659 90.5183 317.273 90.2243C316.896 89.9317 316.246 89.6407 315.485 89.6257C314.723 89.6114 314.077 89.8768 313.701 90.1543C313.319 90.4341 313.185 90.6988 313.252 90.7672Z" fill="#263238"/>
<path d="M308.327 99.7378C308.334 99.6686 307.577 99.5189 306.35 99.3324C306.038 99.2926 305.744 99.2234 305.697 99.0091C305.629 98.782 305.768 98.4481 305.928 98.0886C306.239 97.3404 306.566 96.5561 306.909 95.7341C308.272 92.3802 309.266 89.6196 309.131 89.5662C308.995 89.5128 307.78 92.1869 306.417 95.5409C306.088 96.3681 305.774 97.1562 305.475 97.9112C305.349 98.2631 305.136 98.6602 305.283 99.1324C305.362 99.3678 305.587 99.5422 305.786 99.6009C305.984 99.6663 306.16 99.6746 306.314 99.6874C307.552 99.7836 308.321 99.807 308.327 99.7378Z" fill="#263238"/>
<path d="M306.833 113.017C306.833 113.017 313.085 113.533 319.074 110.126C319.074 110.126 315.933 116.256 306.785 115.225L306.833 113.017Z" fill="#EB996E"/>
<path d="M314.02 84.3805C314.068 84.7309 315.294 84.8362 316.659 85.31C318.034 85.7567 319.075 86.4124 319.324 86.162C319.438 86.0409 319.307 85.692 318.918 85.2784C318.631 84.8482 318.098 84.3707 317.054 84.1331C316.233 83.8579 315.432 83.824 314.877 83.921C314.318 84.0165 314.004 84.2151 314.02 84.3805Z" fill="#263238"/>
<path d="M301.207 86.4192C301.429 86.6914 302.264 86.3831 303.276 86.3455C304.287 86.2718 305.151 86.4868 305.341 86.1913C305.424 86.0484 305.283 85.7732 304.902 85.5198C304.526 85.2663 303.904 85.0678 303.208 85.1054C302.513 85.1445 301.916 85.4107 301.571 85.7033C301.22 85.9973 301.108 86.2861 301.207 86.4192Z" fill="#263238"/>
<path d="M318.241 76.9221C317.967 77.6027 317.673 78.3133 317.103 78.7751C316.533 79.236 315.599 79.3361 315.111 78.7886C314.305 79.6677 312.641 79.4616 312.073 78.4126C311.192 79.1864 309.768 79.2511 308.819 78.56C307.93 78.7044 307.041 78.8495 306.151 78.9939C305.186 79.1511 303.99 79.2157 303.446 78.4028C303.32 78.2141 303.232 77.981 303.032 77.8749C302.83 77.7681 302.584 77.829 302.356 77.8463C301.595 77.905 300.872 77.4282 300.428 76.8078C299.983 76.1874 299.764 75.4377 299.553 74.7045C299.228 73.5765 299 72.1304 299.943 71.4303C300.312 71.1558 300.785 71.0723 301.239 70.9971C302.165 70.8437 303.125 70.6918 304.031 70.9362C305.148 71.2385 306.029 72.1101 306.672 73.0726C306.449 72.4771 306.91 71.7875 307.513 71.5859C308.116 71.3837 308.785 71.5611 309.351 71.8521C310.165 72.271 310.857 72.926 311.32 73.7171C312.792 73.7728 314.192 74.7376 314.769 76.0934C315.448 75.6866 316.3 75.5806 317.059 75.8069C317.325 75.8866 317.599 76.0227 317.722 76.2724C317.846 76.5213 317.727 76.8936 317.451 76.9349" fill="#263238"/>
<path d="M309.677 76.9914C310.074 78.1885 309.59 79.6211 308.547 80.331C307.505 81.0409 305.994 80.9672 305.025 80.1588C304.566 81.3499 303.138 82.0719 301.906 81.7357C301.854 83.2442 300.906 84.6881 299.543 85.3355C299.829 86.1101 299.805 86.9952 299.476 87.7532C299.266 88.239 298.91 88.6895 298.416 88.8812C297.83 89.1083 297.163 88.9339 296.599 88.6549C295.801 88.2593 295.08 87.6081 294.837 86.7508C294.594 85.8935 294.967 84.837 295.795 84.5098C295.064 83.7691 294.501 82.8652 294.159 81.8831C293.964 81.3214 293.845 80.6807 294.108 80.1482C294.372 79.6151 295.157 79.3293 295.585 79.7422C295.168 78.8593 295.304 77.7433 295.92 76.9861C296.536 76.2288 297.602 75.8694 298.551 76.0972C298.607 75.2798 299.17 74.518 299.936 74.2255C300.701 73.9322 301.629 74.1232 302.217 74.694" fill="#263238"/>
<path d="M320.305 76.5641C320.278 75.488 321.354 74.636 322.426 74.545C323.498 74.454 324.534 74.9285 325.472 75.4549C326.519 74.3209 328.317 73.9615 329.72 74.6059C331.118 75.2489 331.96 76.6702 333.083 77.7207C333.68 78.2779 334.382 78.7577 334.776 79.4729C335.17 80.188 335.102 81.2551 334.377 81.6319C335.292 82.0026 335.97 82.899 336.08 83.8796C336.19 84.8602 335.724 85.8837 334.914 86.4462C334.655 86.6259 334.347 86.7823 334.229 87.0741C334.129 87.3185 334.192 87.5952 334.265 87.8479C334.618 89.0571 335.209 90.2009 335.396 91.4462C335.583 92.6915 335.242 94.1436 334.153 94.7768C333.866 94.9445 333.516 95.0701 333.374 95.3709C333.282 95.5687 333.303 95.7995 333.347 96.0131C333.493 96.7162 333.86 97.3502 334.134 98.0142C334.408 98.6782 334.59 99.4317 334.35 100.108C334.111 100.785 333.312 101.297 332.655 101.006C333.052 102.386 332.936 103.998 331.996 105.083C331.056 106.168 328.123 106.525 326.457 105.386L326.517 101.326C326.782 100.626 325.878 96.7674 326.379 96.0191C326.379 96.0191 327.452 98.7203 324.741 98.1337C323.839 98.33 322.266 95.6258 322.198 94.7046C322.13 93.7834 322.755 92.9081 323.571 92.4764C322.079 91.2296 321.72 88.8308 322.781 87.2019C321.816 87.0109 321.039 86.11 320.992 85.1279C320.944 84.1458 321.632 83.1742 322.574 82.8915C320.083 82.156 318.734 78.8856 319.981 76.6077" fill="#263238"/>
<path d="M325.523 94.0174C325.648 93.9557 330.624 92.2366 330.708 97.3931C330.792 102.55 325.598 101.571 325.586 101.424C325.575 101.276 325.523 94.0174 325.523 94.0174Z" fill="#FFBE9D"/>
<path d="M327.129 99.4437C327.152 99.4264 327.22 99.5054 327.374 99.5723C327.522 99.6378 327.778 99.6799 328.045 99.5753C328.587 99.3663 329.031 98.494 329.041 97.5637C329.046 97.0945 328.94 96.6485 328.768 96.2816C328.605 95.9071 328.356 95.6476 328.081 95.6033C327.807 95.5446 327.616 95.7123 327.555 95.8582C327.488 96.0033 327.522 96.1056 327.495 96.1154C327.481 96.1289 327.383 96.0304 327.422 95.8168C327.441 95.7138 327.5 95.5912 327.619 95.4905C327.741 95.3874 327.922 95.3333 328.114 95.3506C328.513 95.3716 328.877 95.7319 329.066 96.1349C329.277 96.5395 329.407 97.0396 329.401 97.5675C329.385 98.6068 328.869 99.5881 328.127 99.816C327.766 99.9167 327.462 99.8122 327.303 99.6934C327.141 99.5678 327.112 99.4535 327.129 99.4437Z" fill="#EB996E"/>
<path d="M311.762 101.621C311.372 101.207 310.776 100.999 310.214 101.08C309.651 101.161 309.138 101.529 308.881 102.036C308.67 102.452 308.633 102.959 308.804 103.392C309.043 104.001 309.701 104.417 310.353 104.373C311.005 104.329 311.601 103.828 311.756 103.192C311.911 102.557 312.156 101.808 311.597 101.468" fill="#EB996E"/>
<path d="M310.21 92.6653C310.248 92.6705 310.253 92.1569 310.541 91.3019C310.824 90.4634 311.487 89.2504 312.841 88.3729C313.511 87.945 314.34 87.6005 315.274 87.5065C316.201 87.4171 317.231 87.5216 318.186 87.9668C318.668 88.1743 319.126 88.4684 319.541 88.8278C319.961 89.1813 320.334 89.6091 320.632 90.0949C321.252 91.0552 321.555 92.2532 321.481 93.4601C321.384 94.6663 320.917 95.8109 320.168 96.6742C319.804 97.1141 319.374 97.4848 318.909 97.7759C318.448 98.0736 317.953 98.3 317.447 98.4384C316.439 98.7444 315.404 98.7031 314.498 98.4842C313.587 98.2594 312.815 97.8022 312.212 97.2841C310.995 96.2252 310.509 94.931 310.346 94.061C310.181 93.1744 310.249 92.6653 310.21 92.6653C310.21 92.6653 310.102 93.1699 310.235 94.0805C310.368 94.9732 310.833 96.3192 312.077 97.436C312.693 97.9827 313.491 98.4692 314.438 98.7144C315.379 98.9527 316.46 99.0054 317.519 98.6926C318.051 98.5512 318.571 98.3165 319.056 98.0075C319.546 97.7044 319.999 97.3171 320.383 96.8569C321.172 95.9523 321.667 94.7483 321.768 93.4804C321.846 92.2118 321.525 90.95 320.871 89.9445C320.556 89.4354 320.162 88.988 319.72 88.6195C319.283 88.245 318.801 87.9397 318.294 87.7254C317.29 87.2667 316.212 87.1666 315.247 87.2704C314.275 87.3795 313.417 87.7494 312.73 88.2044C311.342 89.1361 310.693 90.4033 310.435 91.2681C310.174 92.1501 310.21 92.6653 310.21 92.6653Z" fill="#455A64"/>
<path d="M295.896 91.6545C295.934 91.6598 295.939 91.1462 296.226 90.2912C296.51 89.4527 297.172 88.2389 298.526 87.3621C299.196 86.9342 300.026 86.5898 300.959 86.4951C301.886 86.4056 302.916 86.5101 303.871 86.9553C304.353 87.1628 304.811 87.4569 305.226 87.8163C305.646 88.1698 306.019 88.5976 306.317 89.0834C306.938 90.043 307.24 91.2417 307.167 92.4486C307.07 93.6548 306.603 94.7994 305.854 95.6627C305.49 96.1019 305.06 96.4733 304.594 96.7644C304.133 97.0622 303.638 97.2885 303.132 97.4261C302.124 97.7329 301.089 97.6908 300.183 97.472C299.273 97.2472 298.5 96.7899 297.897 96.2718C296.68 95.213 296.194 93.9188 296.031 93.0487C295.867 92.1636 295.934 91.6545 295.896 91.6545C295.896 91.6545 295.788 92.1591 295.921 93.0698C296.053 93.9624 296.519 95.3085 297.763 96.4252C298.379 96.9719 299.177 97.4585 300.124 97.7036C301.066 97.942 302.146 97.9946 303.206 97.6818C303.737 97.5404 304.258 97.3058 304.743 96.9967C305.232 96.6937 305.686 96.3064 306.069 95.8462C306.858 94.9415 307.354 93.7376 307.455 92.4697C307.533 91.2003 307.212 89.9392 306.557 88.9338C306.242 88.4247 305.848 87.9772 305.406 87.6088C304.969 87.2343 304.487 86.929 303.981 86.7146C302.976 86.2559 301.9 86.1559 300.934 86.2597C299.962 86.3695 299.104 86.7387 298.417 87.1929C297.029 88.1246 296.379 89.3918 296.123 90.2566C295.86 91.1394 295.896 91.6545 295.896 91.6545Z" fill="#455A64"/>
<path d="M321.597 92.3336C321.563 92.4028 322.452 92.9014 323.623 93.345C324.794 93.7917 325.79 94.0106 325.811 93.9361C325.833 93.8579 324.884 93.5187 323.726 93.0766C322.567 92.6374 321.632 92.2599 321.597 92.3336Z" fill="#455A64"/>
<path d="M306.805 90.8469C306.828 90.9303 307.67 90.6716 308.7 90.8612C309.734 91.0326 310.438 91.562 310.488 91.4913C310.547 91.447 309.869 90.7672 308.749 90.5784C307.633 90.3754 306.764 90.7844 306.805 90.8469Z" fill="#455A64"/>
<path d="M317.589 97.4645C317.597 97.4961 317.973 97.4465 318.516 97.1773C319.056 96.9133 319.754 96.3922 320.258 95.6026C320.762 94.8122 320.941 93.9602 320.952 93.3594C320.967 92.7525 320.853 92.3908 320.821 92.3968C320.775 92.4028 320.814 92.7683 320.749 93.3443C320.687 93.9173 320.487 94.7077 320.015 95.4477C319.544 96.1869 318.91 96.7013 318.418 96.9991C317.923 97.3021 317.575 97.4209 317.589 97.4645Z" fill="#FFE1D9"/>
<path d="M303.435 96.2959C303.444 96.3282 303.796 96.2726 304.303 96.0109C304.806 95.7545 305.455 95.2574 305.929 94.5167C306.405 93.7752 306.584 92.9788 306.606 92.4141C306.632 91.8441 306.535 91.5011 306.502 91.5072C306.457 91.5117 306.479 91.8561 306.404 92.3953C306.331 92.9314 306.132 93.6684 305.687 94.3625C305.244 95.0558 304.658 95.5462 304.201 95.8364C303.743 96.129 303.42 96.2523 303.435 96.2959Z" fill="#FFE1D9"/>
<path d="M312.278 100.097C312.372 100.096 312.489 100.482 312.347 101.101C312.214 101.708 311.759 102.541 310.899 103.062C310.035 103.577 309.086 103.587 308.487 103.42C307.874 103.253 307.588 102.968 307.634 102.886C307.682 102.786 308.03 102.881 308.567 102.895C309.098 102.913 309.843 102.818 310.512 102.419C311.179 102.016 311.614 101.403 311.847 100.926C312.087 100.445 312.167 100.093 312.278 100.097Z" fill="#263238"/>
<path d="M326.518 70.7708C326.513 70.7618 326.609 70.7046 326.797 70.6031C326.991 70.5121 327.257 70.3256 327.656 70.2091C328.408 69.9218 329.707 69.6503 331.157 70.2361C332.601 70.8046 333.987 72.2146 334.829 74.1337C335.214 75.1128 335.478 76.198 335.5 77.3719C335.504 77.9562 335.443 78.5668 335.227 79.1533C335.016 79.7384 334.641 80.2956 334.119 80.6949L334.079 80.3881C335.275 80.8777 336.268 81.9936 336.564 83.3668C336.86 84.7392 336.375 86.2815 335.287 87.2764C335.203 87.3577 335.108 87.4268 335.026 87.496L334.993 87.1772C335.833 87.569 336.392 88.3683 336.646 89.188C336.913 90.0152 336.937 90.88 336.817 91.6975C336.533 93.3451 335.721 94.71 335.181 96.0628C334.901 96.7389 334.684 97.4104 334.566 98.088C334.442 98.7655 334.378 99.4423 334.265 100.096C334.077 101.414 333.484 102.594 332.713 103.422C331.154 105.119 329.226 105.615 327.995 105.655C327.364 105.672 326.879 105.6 326.558 105.524C326.239 105.439 326.075 105.389 326.078 105.376C326.087 105.322 326.753 105.587 327.987 105.509C329.188 105.428 331.045 104.9 332.517 103.246C333.247 102.431 333.788 101.33 333.961 100.045C334.065 99.4047 334.122 98.7279 334.243 98.03C334.359 97.3292 334.582 96.6215 334.862 95.9335C335.406 94.5543 336.198 93.1879 336.455 91.6426C336.566 90.8748 336.539 90.0596 336.292 89.3031C336.054 88.5496 335.56 87.857 334.833 87.5163L334.571 87.3938L334.799 87.1975C334.873 87.1343 334.959 87.0727 335.035 86.999C336.021 86.0996 336.469 84.6813 336.202 83.4443C335.939 82.1982 335.027 81.1649 333.945 80.7175L333.656 80.5979L333.905 80.4107C334.857 79.6948 335.187 78.472 335.169 77.3726C335.159 76.2589 334.908 75.1858 334.551 74.248C333.762 72.3906 332.437 71.0054 331.073 70.4384C329.702 69.8511 328.448 70.0707 327.694 70.3196C327.297 70.4159 327.025 70.5836 326.825 70.6557C326.628 70.7407 326.524 70.7798 326.518 70.7708Z" fill="#455A64"/>
<path d="M328.11 69.7683C328.122 69.754 328.319 69.8833 328.595 70.2022C328.864 70.5225 329.202 71.0527 329.393 71.7904C329.585 72.5191 329.623 73.4764 329.241 74.4292C328.868 75.3812 328.039 76.2505 326.96 76.7168C326.234 77.0409 325.442 77.1349 324.732 77.0476L324.887 76.9912C323.627 78.3035 321.991 78.6629 320.929 78.6291C320.386 78.6171 319.961 78.5268 319.68 78.4396C319.4 78.3486 319.257 78.2764 319.264 78.2584C319.279 78.1989 319.883 78.4358 320.927 78.3997C321.946 78.3719 323.471 77.9764 324.621 76.7446L324.684 76.6784L324.777 76.6882C325.422 76.7581 326.143 76.6701 326.81 76.3716C327.801 75.9429 328.565 75.1556 328.92 74.2968C329.287 73.435 329.284 72.5447 329.135 71.8506C328.823 70.4278 328.041 69.8119 328.11 69.7683Z" fill="#455A64"/>
<path d="M332.185 70.7609C332.196 70.7542 332.244 70.8098 332.325 70.9234C332.412 71.0347 332.516 71.2129 332.638 71.4505C332.877 71.9258 333.13 72.677 333.171 73.6418C333.201 74.5969 333.001 75.7813 332.315 76.8769C331.642 77.9786 330.426 78.875 328.994 79.2548C327.784 79.5744 326.529 79.4886 325.504 79.0856L325.72 79.0111C325.163 79.924 324.306 80.5151 323.477 80.7821C322.639 81.0558 321.838 80.9994 321.231 80.8355C320.618 80.6693 320.184 80.4001 319.914 80.1955C319.644 79.9865 319.529 79.8413 319.541 79.8293C319.574 79.7729 320.1 80.3459 321.282 80.6227C321.866 80.7482 322.612 80.7715 323.379 80.4978C324.141 80.2301 324.919 79.6661 325.414 78.8299L325.49 78.702L325.631 78.7554C326.59 79.1179 327.763 79.1916 328.898 78.8915C330.243 78.5343 331.382 77.7079 332.024 76.6904C332.682 75.676 332.902 74.56 332.907 73.6463C332.89 71.7761 332.097 70.7888 332.185 70.7609Z" fill="#455A64"/>
<path d="M231.921 146.084C232.179 146.323 232.437 146.561 232.696 146.8C232.781 146.878 232.877 146.962 232.993 146.963C233.14 146.966 233.252 146.836 233.325 146.709C233.577 146.263 233.592 145.708 233.437 145.22C233.281 144.732 232.967 144.307 232.6 143.95C232.43 143.786 232.224 143.625 231.988 143.629C231.754 143.633 231.556 143.797 231.385 143.958C231.154 144.177 230.935 144.407 230.727 144.649C230.626 144.765 230.523 144.906 230.55 145.057C230.571 145.174 230.664 145.261 230.752 145.34C231.088 145.639 231.585 145.784 231.921 146.084Z" fill="#EB996E"/>
<path d="M238.428 132.795C237.286 132.7 232.157 131.939 232.157 131.939L224.281 133.467C224.281 133.467 224.53 135.727 226.149 135.564C227.768 135.401 229.551 135.41 229.551 135.41L232.366 135.88C232.366 135.88 228.337 138.342 228.274 138.861C228.211 139.381 228.5 139.96 228.5 139.96C228.5 139.96 227.796 141.289 228.264 142.815L228.229 146.497L231.826 149.217C231.826 149.217 232.424 148.291 232.213 147.242C232.003 146.194 230.608 145.533 230.608 145.533L231.533 144.036L232.855 143.63C232.855 143.63 241.267 146.387 243.253 146.334L244.922 147.936L251.297 140.101C251.297 140.101 239.569 132.889 238.428 132.795Z" fill="#FFBE9D"/>
<path d="M232.944 140.301C232.976 140.403 231.873 140.801 230.622 141.499C229.366 142.19 228.444 142.913 228.374 142.832C228.309 142.764 229.149 141.894 230.445 141.181C231.738 140.46 232.922 140.209 232.944 140.301Z" fill="#EB996E"/>
<path d="M233.74 137.448C233.775 137.548 232.595 138.024 231.212 138.745C229.824 139.46 228.755 140.149 228.694 140.063C228.636 139.987 229.629 139.152 231.045 138.421C232.456 137.687 233.712 137.357 233.74 137.448Z" fill="#EB996E"/>
<path d="M236.573 133.396C236.609 133.481 235.649 134.059 234.481 134.834C233.31 135.61 232.258 136.098 232.211 135.998C232.172 135.915 233.113 135.303 234.284 134.528C235.457 133.749 236.53 133.294 236.573 133.396Z" fill="#EB996E"/>
<path d="M332.8 142.126L323.748 186.876C323.748 186.876 330.672 204.647 329.59 212.88C328.962 217.655 326.051 228.053 326.051 228.053L280.623 212.794C278.532 212.023 277.283 209.88 277.649 207.681C279.62 195.831 285.712 159.749 288.121 151.668C292.202 137.974 304.817 122.06 304.817 122.06L305.065 117.4L328.047 117.732L327.909 122.432C327.909 122.432 335.4 130.918 332.8 142.126Z" fill="#A06A00"/>
<path d="M316.723 126.862C319.483 126.089 319.859 127.152 324.294 129.149C328.728 131.147 329.589 141.885 329.589 141.885L323.327 152.786L290.482 171.721C290.482 171.721 283.787 176.473 273.321 169.278C269.481 166.637 243.453 149.437 243.453 149.437L251.035 137.983L281.762 151.813L316.723 126.862Z" fill="#A06A00"/>
<g opacity="0.3">
<path d="M300.845 165.729C310.081 159.72 319.015 153.909 328.25 147.9C328.595 147.676 328.964 147.444 329.376 147.437C330.149 147.424 330.726 148.26 330.699 149.034C330.671 149.807 330.212 150.494 329.718 151.09C327.154 154.177 323.364 155.925 319.706 157.574C313.458 160.39 304.61 164.44 298.363 167.256L300.845 165.729Z" fill="black"/>
</g>
<path d="M312.118 130.307C312.121 130.312 312.075 130.353 311.98 130.428C311.866 130.516 311.725 130.623 311.554 130.755C311.148 131.053 310.593 131.462 309.892 131.978C308.41 133.045 306.315 134.557 303.737 136.416C298.494 140.15 291.296 145.276 283.345 150.939C282.894 151.258 282.445 151.577 282.027 151.872L281.936 151.937L281.835 151.892C273.257 148.052 265.559 144.607 259.969 142.104C257.218 140.853 254.988 139.838 253.411 139.122C252.665 138.773 252.075 138.497 251.642 138.295C251.459 138.206 251.309 138.132 251.186 138.072C251.085 138.019 251.033 137.99 251.037 137.984C251.04 137.978 251.095 137.996 251.202 138.036C251.329 138.088 251.484 138.149 251.673 138.225C252.113 138.412 252.713 138.665 253.471 138.985C255.06 139.676 257.307 140.652 260.079 141.857C265.682 144.331 273.396 147.738 281.993 151.535L281.801 151.554C282.218 151.258 282.667 150.939 283.118 150.62C291.095 144.994 298.316 139.901 303.576 136.191C306.184 134.374 308.305 132.898 309.803 131.854C310.522 131.364 311.091 130.975 311.508 130.691C311.689 130.572 311.836 130.476 311.957 130.397C312.06 130.331 312.114 130.301 312.118 130.307Z" fill="#263238"/>
<path d="M326.051 149.425C326.058 149.436 325.893 149.565 325.57 149.8C325.248 150.037 324.767 150.377 324.142 150.805C322.894 151.667 321.072 152.888 318.81 154.381C314.281 157.361 307.994 161.431 300.946 165.762C297.414 167.918 294.042 169.96 290.856 171.63C290.462 171.844 290.062 172.041 289.655 172.216C289.453 172.307 289.253 172.396 289.054 172.486C288.848 172.557 288.644 172.628 288.44 172.699C287.621 172.963 286.802 173.147 286 173.23C284.396 173.422 282.881 173.305 281.543 173.034C280.203 172.767 279.028 172.363 278.038 171.925C277.535 171.726 277.095 171.476 276.677 171.279C276.273 171.052 275.902 170.848 275.576 170.653C274.932 170.248 274.442 169.922 274.126 169.675C273.805 169.438 273.64 169.308 273.647 169.297C273.655 169.287 273.835 169.395 274.171 169.611C274.5 169.836 275.002 170.14 275.654 170.522C275.99 170.702 276.36 170.899 276.762 171.114C277.183 171.298 277.622 171.537 278.124 171.724C279.11 172.137 280.276 172.517 281.596 172.762C284.212 173.274 287.593 173.121 290.692 171.309C293.846 169.635 297.214 167.583 300.742 165.429C307.785 161.101 314.094 157.069 318.66 154.15C320.914 152.7 322.75 151.52 324.059 150.679C324.672 150.285 325.16 149.971 325.526 149.735C325.862 149.521 326.042 149.413 326.051 149.425Z" fill="#263238"/>
<path d="M329.228 128.701C329.183 128.755 328.519 128.154 327.264 127.484C326.024 126.814 324.133 126.133 321.972 126.099C319.81 126.066 317.9 126.688 316.639 127.32C315.365 127.951 314.682 128.531 314.639 128.476C314.623 128.457 314.777 128.293 315.087 128.033C315.397 127.772 315.875 127.429 316.511 127.075C317.769 126.363 319.735 125.673 321.979 125.707C324.221 125.742 326.165 126.493 327.4 127.243C328.024 127.617 328.492 127.975 328.794 128.245C329.096 128.514 329.244 128.682 329.228 128.701Z" fill="#263238"/>
<path d="M327.4 122.327C327.406 122.353 327.1 122.441 326.542 122.575C325.986 122.714 325.171 122.877 324.159 123.045C322.135 123.381 319.301 123.67 316.165 123.635C313.027 123.594 310.201 123.236 308.187 122.851C307.178 122.659 306.368 122.476 305.815 122.323C305.261 122.175 304.958 122.081 304.964 122.054C304.97 122.028 305.286 122.072 305.848 122.175C306.41 122.281 307.225 122.421 308.233 122.577C310.25 122.891 313.057 123.202 316.17 123.243C319.283 123.278 322.096 123.036 324.119 122.771C325.131 122.64 325.949 122.519 326.513 122.426C327.079 122.338 327.394 122.301 327.4 122.327Z" fill="#263238"/>
<path d="M316.071 172.2C316.124 172.178 316.521 173.037 317.167 174.419C317.814 175.801 318.722 177.702 319.792 179.768C320.863 181.834 321.892 183.672 322.649 184.997C323.404 186.323 323.877 187.142 323.829 187.172C323.786 187.2 323.231 186.433 322.412 185.139C321.592 183.847 320.521 182.022 319.444 179.948C318.371 177.873 317.497 175.945 316.914 174.53C316.33 173.115 316.024 172.219 316.071 172.2Z" fill="#263238"/>
<path d="M286.416 214.793C286.316 214.722 287.409 213.428 287.889 211.463C288.399 209.506 288.049 207.848 288.171 207.833C288.256 207.785 288.802 209.492 288.269 211.559C287.758 213.631 286.468 214.875 286.416 214.793Z" fill="#263238"/>
<path d="M300.14 211.548C300.184 211.539 300.325 211.969 300.359 212.696C300.395 213.418 300.282 214.439 299.876 215.478C299.466 216.517 298.855 217.341 298.336 217.846C297.818 218.355 297.422 218.575 297.396 218.538C297.308 218.451 298.745 217.342 299.511 215.334C300.314 213.343 300.016 211.552 300.14 211.548Z" fill="#263238"/>
<path d="M313.694 214.916C313.784 214.889 314.083 216.929 313.301 219.285C312.542 221.65 311.097 223.119 311.04 223.044C310.939 222.971 312.2 221.442 312.929 219.164C313.685 216.895 313.569 214.915 313.694 214.916Z" fill="#263238"/>
<path d="M322.977 217.62C323.023 217.611 323.182 218.129 323.276 218.998C323.371 219.864 323.37 221.084 323.122 222.398C322.871 223.713 322.425 224.848 322.018 225.619C321.612 226.393 321.275 226.816 321.236 226.791C321.124 226.733 322.265 224.895 322.738 222.325C323.24 219.762 322.852 217.633 322.977 217.62Z" fill="#263238"/>
<path d="M116.957 309.138H56.6912V317.419H116.957V309.138Z" fill="#263238"/>
<path d="M56.5889 309.035H117.061V317.522H56.5889V309.035ZM116.854 309.241H56.7949V317.316H116.854V309.241Z" fill="#263238"/>
<path d="M111.37 314.663L102.695 357.459H70.5977L62.2122 317.419L111.37 314.663Z" fill="#263238"/>
<path d="M111.37 353.411L106.743 359.772H67.7296L62.2122 353.411H111.37Z" fill="#455A64"/>
<path d="M89.0873 315.913C89.2061 315.913 89.358 296.087 89.4264 271.636C89.4949 247.176 89.455 227.354 89.3362 227.353C89.2174 227.353 89.0655 247.174 88.997 271.634C88.9286 296.086 88.9685 315.912 89.0873 315.913Z" fill="#263238"/>
<path d="M75.6626 266.298C75.6491 266.305 75.7055 266.464 75.8243 266.759C75.9657 267.096 76.1439 267.52 76.3627 268.042C76.483 268.325 76.6139 268.633 76.756 268.966C76.8809 269.315 77.0147 269.691 77.1576 270.091C77.3035 270.497 77.4584 270.928 77.6223 271.383C77.7833 271.841 77.9103 272.339 78.0683 272.855C78.7263 274.909 79.2497 277.429 79.7535 280.234C80.1919 283.051 80.5213 286.172 80.6867 289.461C80.98 296.045 80.6078 302.016 80.2107 306.316C80.0167 308.467 79.8219 310.207 79.6783 311.407C79.6166 311.97 79.5662 312.428 79.5264 312.791C79.4963 313.109 79.4873 313.277 79.5023 313.279C79.5166 313.281 79.5542 313.117 79.6121 312.804C79.673 312.444 79.7497 311.989 79.8445 311.43C80.0385 310.235 80.2799 308.499 80.513 306.347C80.989 302.045 81.4109 296.056 81.1161 289.441C80.9499 286.137 80.607 282.999 80.1445 280.169C79.6159 277.351 79.0586 274.822 78.3585 272.766C78.1901 272.25 78.0532 271.753 77.881 271.295C77.7058 270.841 77.5389 270.412 77.3824 270.007C77.2268 269.609 77.0816 269.236 76.9463 268.889C76.7974 268.551 76.6455 268.25 76.5169 267.975C76.2672 267.465 76.0642 267.05 75.904 266.722C75.7581 266.437 75.6762 266.292 75.6626 266.298Z" fill="#263238"/>
<path d="M77.2034 250.263C77.1899 250.269 77.256 250.494 77.3951 250.917C77.5516 251.376 77.7599 251.989 78.0223 252.76C78.1622 253.163 78.3156 253.606 78.4833 254.089C78.6329 254.584 78.7946 255.118 78.9683 255.69C79.321 256.837 79.7294 258.141 80.0926 259.608C80.2851 260.339 80.4874 261.104 80.6972 261.9C80.8784 262.705 81.0672 263.542 81.2619 264.407C81.683 266.133 81.9869 268.008 82.3756 269.966C83.0397 273.903 83.6247 278.257 84.0285 282.848C84.409 287.444 84.5752 291.835 84.6331 295.829C84.6452 299.824 84.5948 303.424 84.4301 306.442C84.3767 307.952 84.2797 309.316 84.2023 310.514C84.1331 311.712 84.0579 312.744 83.9812 313.586C83.9195 314.398 83.8699 315.045 83.8338 315.528C83.8052 315.972 83.7969 316.207 83.8112 316.209C83.8262 316.21 83.8631 315.979 83.9195 315.537C83.9767 315.056 84.0519 314.411 84.1474 313.601C84.2496 312.761 84.3496 311.73 84.4414 310.532C84.5422 309.334 84.6602 307.969 84.7332 306.457C84.9362 303.437 85.0182 299.83 85.0279 295.826C84.9911 291.823 84.8369 287.42 84.4557 282.812C84.0511 278.207 83.4525 273.842 82.7644 269.896C82.3644 267.934 82.0463 266.056 81.6086 264.328C81.4048 263.462 81.2078 262.625 81.0183 261.819C80.7987 261.023 80.5874 260.258 80.3851 259.527C80.0023 258.062 79.5722 256.76 79.1969 255.617C79.0112 255.048 78.8375 254.516 78.6773 254.023C78.4968 253.544 78.3306 253.104 78.1802 252.704C77.8862 251.944 77.6516 251.339 77.4764 250.886C77.3109 250.472 77.2169 250.257 77.2034 250.263Z" fill="#263238"/>
<path d="M92.899 319.42C92.9066 319.421 92.9178 319.342 92.9329 319.189C92.9479 319.01 92.9667 318.786 92.99 318.507C93.0329 317.875 93.0916 316.997 93.1675 315.881C93.3119 313.568 93.5179 310.277 93.7721 306.224C94.2955 298.072 95.052 286.808 96.4237 274.423C97.1245 268.23 97.9374 262.349 98.7827 257.016C99.2324 254.354 99.6392 251.822 100.102 249.465C100.526 247.102 100.982 244.913 101.403 242.916C101.799 240.912 102.24 239.119 102.595 237.536C102.944 235.951 103.282 234.595 103.565 233.489C103.831 232.404 104.04 231.549 104.19 230.935C104.253 230.661 104.303 230.441 104.343 230.267C104.375 230.116 104.388 230.038 104.381 230.036C104.373 230.034 104.346 230.108 104.3 230.256C104.25 230.427 104.186 230.643 104.107 230.912C103.938 231.522 103.702 232.37 103.403 233.448C103.095 234.549 102.734 235.899 102.362 237.48C101.985 239.059 101.521 240.85 101.106 242.852C100.666 244.847 100.192 247.036 99.752 249.399C99.2738 251.755 98.8526 254.29 98.3924 256.952C97.5246 262.288 96.6989 268.176 95.9973 274.375C94.6241 286.774 93.915 298.048 93.4691 306.207C93.2472 310.287 93.0938 313.59 93.0013 315.873C92.96 316.991 92.9276 317.87 92.9043 318.503C92.8983 318.783 92.8938 319.009 92.89 319.187C92.8885 319.341 92.8915 319.42 92.899 319.42Z" fill="#263238"/>
<path d="M89.5789 236.884C89.8406 234.075 92.6794 231.956 95.5001 231.927C98.3209 231.898 100.95 233.59 102.675 235.822C104.4 238.054 105.351 240.779 106.13 243.49C108.029 250.107 109.068 257.06 108.256 263.896C107.443 270.732 104.67 277.463 99.764 282.293C98.9661 283.078 97.9329 283.864 96.8387 283.63C96.2401 283.503 95.7498 283.087 95.2956 282.677C85.6587 273.971 80.0939 260.933 80.4752 247.951C80.5511 245.351 80.8933 242.646 82.3326 240.48C83.772 238.314 87.1281 236.014 89.5789 236.884Z" fill="#A06A00"/>
<path d="M110.643 214.387C111.967 216.785 113.291 219.184 114.615 221.582C114.708 221.75 114.83 221.938 115.021 221.954C115.231 221.971 115.386 221.773 115.501 221.598C119.002 216.224 122.503 210.851 126.004 205.477L123.584 204.106L110.643 214.387Z" fill="#A06A00"/>
<g opacity="0.2">
<path d="M110.643 214.387C111.967 216.785 113.291 219.184 114.615 221.582C114.708 221.75 114.83 221.938 115.021 221.954C115.231 221.971 115.386 221.773 115.501 221.598C119.002 216.224 122.503 210.851 126.004 205.477L123.584 204.106L110.643 214.387Z" fill="black"/>
</g>
<path d="M89.3369 227.352C101.28 220.304 113.223 213.257 125.167 206.21C125.532 205.994 125.928 205.739 126.039 205.33C126.182 204.8 125.784 204.288 125.402 203.894C120.474 198.811 113.316 195.864 106.254 196.371C99.1919 196.88 92.4005 200.959 88.9428 207.138C85.4852 213.316 85.3708 221.487 89.3369 227.352Z" fill="#A06A00"/>
<path d="M120.003 199.46C120.003 199.445 119.842 199.426 119.533 199.402C119.224 199.386 118.769 199.33 118.179 199.337C117.002 199.309 115.29 199.385 113.208 199.732C111.126 200.074 108.681 200.743 106.127 201.883C103.574 203.016 100.933 204.658 98.5278 206.814C96.1417 208.994 94.2444 211.459 92.8622 213.886C91.474 216.314 90.5641 218.68 90.0166 220.717C89.4647 222.755 89.2172 224.451 89.1285 225.625C89.0638 226.21 89.0894 226.36 89.0736 226.669C89.0668 226.979 89.3353 227.451 89.3496 227.451C89.388 227.454 89.1518 226.805 89.2939 225.643C89.4331 224.481 89.7241 222.807 90.3076 220.801C91.4402 216.811 94.0707 211.431 98.815 207.133C103.562 202.842 109.178 200.761 113.261 200.032C115.315 199.651 117.01 199.528 118.18 199.506C119.351 199.478 120.001 199.498 120.003 199.46Z" fill="#263238"/>
<path d="M94.1865 212.759C94.1662 212.813 94.8557 213.133 95.998 213.582C97.1396 214.032 98.7346 214.607 100.519 215.174C102.304 215.741 103.939 216.192 105.131 216.483C106.323 216.775 107.07 216.911 107.086 216.856C107.101 216.797 106.381 216.557 105.213 216.191C103.893 215.778 102.352 215.297 100.65 214.765C98.9534 214.218 97.4178 213.722 96.1011 213.297C94.9347 212.921 94.2075 212.703 94.1865 212.759Z" fill="#263238"/>
<path d="M99.828 197.603C99.7122 197.593 99.4588 199.379 99.4039 201.6C99.346 203.821 99.5092 205.619 99.625 205.613C99.7461 205.609 99.7754 203.817 99.8333 201.61C99.8882 199.406 99.9491 197.614 99.828 197.603Z" fill="#263238"/>
<path d="M125.479 205.809C125.496 205.754 124.505 205.395 122.877 204.893C121.249 204.391 118.982 203.756 116.455 203.147C113.927 202.538 111.619 202.071 109.941 201.777C108.263 201.482 107.217 201.35 107.207 201.407C107.195 201.467 108.222 201.704 109.882 202.074C111.541 202.444 113.833 202.957 116.354 203.564C118.875 204.172 121.147 204.759 122.793 205.185C124.44 205.61 125.461 205.868 125.479 205.809Z" fill="#263238"/>
<path d="M104.451 230.79C107.532 228.452 110.791 227.993 114.655 228.146C118.52 228.299 122.281 229.477 125.823 231.028C131.865 233.674 137.544 237.575 141.154 243.095C144.764 248.615 146.02 255.923 143.318 261.94C143.048 262.539 142.698 263.166 142.094 263.424C141.458 263.696 140.73 263.484 140.072 263.269C133.2 261.028 126.28 258.765 119.962 255.254C113.644 251.744 107.892 246.864 104.502 240.481C103.689 238.949 103.008 237.307 102.875 235.578C102.741 233.849 103.219 232.011 104.451 230.79Z" fill="#A06A00"/>
<path d="M104.389 230.065C104.385 230.079 104.555 230.147 104.884 230.265C105.255 230.393 105.733 230.557 106.324 230.76C106.642 230.866 106.989 230.982 107.366 231.108C107.744 231.244 108.146 231.413 108.584 231.582C109.453 231.934 110.463 232.285 111.525 232.801C112.063 233.046 112.625 233.302 113.21 233.568C113.795 233.838 114.378 234.17 114.996 234.484C116.242 235.096 117.501 235.878 118.844 236.67C121.478 238.336 124.266 240.341 126.98 242.704C129.671 245.096 132.016 247.606 134.003 250.007C134.96 251.237 135.896 252.388 136.662 253.545C137.053 254.117 137.456 254.654 137.798 255.2C138.137 255.745 138.462 256.27 138.774 256.773C139.421 257.761 139.898 258.717 140.358 259.535C140.581 259.947 140.801 260.325 140.983 260.682C141.156 261.04 141.315 261.37 141.461 261.672C141.738 262.232 141.961 262.684 142.135 263.037C142.294 263.347 142.384 263.508 142.398 263.502C142.411 263.496 142.348 263.324 142.215 263.002C142.059 262.641 141.859 262.176 141.613 261.601C141.477 261.293 141.328 260.957 141.168 260.592C140.995 260.228 140.786 259.843 140.571 259.424C140.13 258.592 139.669 257.621 139.036 256.617C138.73 256.107 138.411 255.575 138.078 255.02C137.741 254.467 137.343 253.923 136.956 253.342C136.198 252.169 135.268 251.003 134.312 249.757C132.329 247.326 129.976 244.789 127.265 242.381C124.533 240 121.716 237.991 119.053 236.333C117.697 235.544 116.421 234.769 115.162 234.167C114.537 233.857 113.947 233.531 113.355 233.267C112.763 233.009 112.194 232.76 111.649 232.521C110.573 232.021 109.551 231.687 108.67 231.356C108.227 231.197 107.818 231.038 107.435 230.913C107.052 230.799 106.7 230.696 106.377 230.6C105.775 230.428 105.289 230.289 104.91 230.181C104.571 230.091 104.393 230.05 104.389 230.065Z" fill="#263238"/>
<path d="M128.464 243.101C128.431 243.214 131.787 244.296 135.96 245.516C140.134 246.737 143.544 247.633 143.577 247.519C143.61 247.406 140.255 246.324 136.08 245.104C131.908 243.883 128.497 242.986 128.464 243.101Z" fill="#263238"/>
<path d="M128.772 259.642C128.83 259.643 128.898 258.751 128.937 257.307C128.977 255.863 128.983 253.867 128.921 251.664C128.86 249.46 128.742 247.467 128.621 246.027C128.501 244.587 128.384 243.701 128.326 243.704C128.266 243.708 128.276 244.602 128.318 246.044C128.367 247.626 128.426 249.549 128.492 251.675C128.545 253.801 128.593 255.724 128.633 257.306C128.672 258.748 128.711 259.641 128.772 259.642Z" fill="#263238"/>
<path d="M114.603 252.423C114.721 252.431 115.097 248.375 115.444 243.365C115.791 238.353 115.976 234.285 115.857 234.277C115.739 234.268 115.362 238.324 115.015 243.336C114.669 248.346 114.484 252.415 114.603 252.423Z" fill="#263238"/>
<path d="M132.241 233.883C132.238 233.823 131.319 233.8 129.838 233.81C128.357 233.821 126.311 233.865 124.054 233.939C121.795 234.013 119.751 234.105 118.272 234.193C116.793 234.281 115.879 234.365 115.879 234.424C115.88 234.483 116.797 234.507 118.278 234.496C119.76 234.486 121.807 234.442 124.067 234.368C126.327 234.293 128.372 234.201 129.851 234.113C131.331 234.026 132.244 233.941 132.241 233.883Z" fill="#263238"/>
<path d="M98.2277 283.236C98.2427 283.236 98.26 283.071 98.2788 282.756C98.2954 282.395 98.3164 281.938 98.342 281.377C98.3961 280.18 98.4082 278.445 98.3623 276.303C98.3232 274.161 98.1781 271.61 97.9201 268.787C97.6411 265.967 97.2373 262.873 96.659 259.651C96.0649 256.43 95.3528 253.39 94.6196 250.647C93.8661 247.91 93.1028 245.468 92.3839 243.444C91.671 241.418 91.0483 239.793 90.5753 238.689C90.3535 238.171 90.173 237.749 90.0301 237.417C89.9008 237.128 89.8263 236.979 89.8128 236.985C89.7993 236.99 89.8466 237.149 89.9497 237.449C90.0722 237.789 90.2279 238.219 90.4197 238.748C90.8438 239.869 91.4221 241.506 92.0959 243.538C92.7764 245.569 93.5066 248.013 94.2368 250.746C94.9467 253.485 95.6438 256.516 96.2356 259.725C96.8117 262.936 97.226 266.016 97.5261 268.826C97.8043 271.638 97.981 274.177 98.0585 276.313C98.1427 278.449 98.1773 280.18 98.1743 281.376C98.1811 281.937 98.1871 282.393 98.1916 282.754C98.2014 283.069 98.2126 283.235 98.2277 283.236Z" fill="#263238"/>
<path d="M96.338 259.776C96.2981 259.818 96.8403 260.421 97.7675 261.345C98.6948 262.269 100.011 263.51 101.513 264.827C103.015 266.143 104.417 267.286 105.455 268.084C106.493 268.883 107.162 269.341 107.198 269.296C107.235 269.248 106.634 268.706 105.648 267.849C104.547 266.893 103.24 265.758 101.795 264.504C100.363 263.236 99.067 262.089 97.9751 261.123C96.996 260.258 96.3801 259.733 96.338 259.776Z" fill="#263238"/>
<path d="M84.9963 268.912C85.0482 268.945 85.616 268.129 86.5184 266.804C87.4975 265.374 88.7142 263.599 90.0588 261.637C91.432 259.693 92.6735 257.935 93.6737 256.52C94.6031 255.213 95.1694 254.397 95.1213 254.359C95.0754 254.324 94.4242 255.075 93.4308 256.338C92.4366 257.601 91.1078 259.378 89.7069 261.391C88.3074 263.404 87.1019 265.269 86.2642 266.639C85.425 268.009 84.9475 268.881 84.9963 268.912Z" fill="#263238"/>
<path d="M90.9378 240.181C90.8739 240.281 94.6414 242.816 99.3512 245.845C104.063 248.874 107.934 251.248 107.998 251.149C108.062 251.049 104.296 248.513 99.5836 245.484C94.873 242.455 91.0017 240.081 90.9378 240.181Z" fill="#263238"/>
<path d="M80.3143 251.646C80.397 251.731 82.9486 249.374 86.0122 246.381C89.0774 243.387 91.4935 240.893 91.4108 240.808C91.3281 240.723 88.7773 243.08 85.7122 246.074C82.6493 249.066 80.2316 251.561 80.3143 251.646Z" fill="#263238"/>
<path d="M77.6433 251.416L74.4089 251.149C72.1138 250.958 69.8849 250.279 67.8778 249.149C66.8859 248.59 65.8888 248.044 64.8337 247.62C60.8353 246.015 56.3737 246.302 52.0708 246.086C45.0471 245.733 38.0978 243.957 31.7675 240.894C31.402 240.718 31.0787 240.448 30.8832 240.091C30.2191 238.881 31.4524 237.804 32.515 237.149C37.9632 233.792 43.5092 230.392 49.6884 228.725C55.8676 227.059 62.8808 227.341 68.153 230.969C74.3427 235.229 76.598 243.977 77.6433 251.416Z" fill="#A06A00"/>
<path d="M30.811 239.695C30.8185 239.708 31.0065 239.62 31.3592 239.44C31.7472 239.237 32.2563 238.97 32.8918 238.637C34.2213 237.937 36.1351 236.906 38.5536 235.746C40.9735 234.599 43.9056 233.304 47.3174 232.368C50.7149 231.424 54.6343 230.93 58.6763 231.448C62.7018 231.978 66.4077 233.544 69.0314 235.894C71.6717 238.237 73.2847 241.064 74.4232 243.468C75.5595 245.891 76.2596 247.953 76.7695 249.365C77.0078 250.041 77.1996 250.583 77.3447 250.996C77.4793 251.368 77.5568 251.561 77.5711 251.556C77.5854 251.552 77.535 251.349 77.4275 250.969C77.3011 250.55 77.1349 249.999 76.9281 249.311C76.4664 247.882 75.8092 245.8 74.6992 243.34C73.5862 240.902 71.9815 238.013 69.2938 235.597C66.6205 233.173 62.8289 231.56 58.7327 231.021C54.6223 230.493 50.639 231.011 47.2121 231.986C43.7702 232.952 40.8329 234.286 38.4212 235.472C36.0111 236.671 34.1175 237.744 32.8121 238.489C32.1924 238.851 31.6953 239.141 31.3178 239.362C30.9787 239.568 30.8042 239.682 30.811 239.695Z" fill="#263238"/>
<path d="M38.5784 243.868C38.6446 243.966 42.8746 241.23 48.0251 237.757C53.177 234.283 57.2987 231.388 57.2326 231.29C57.1664 231.191 52.9371 233.927 47.7852 237.401C42.634 240.873 38.5115 243.769 38.5784 243.868Z" fill="#263238"/>
<path d="M43.0896 231.066C43.0685 231.16 44.4372 231.479 46.169 231.621C47.9009 231.766 49.3109 231.676 49.3094 231.58C49.3094 231.478 47.9152 231.406 46.2059 231.263C44.4958 231.124 43.1107 230.966 43.0896 231.066Z" fill="#263238"/>
<path d="M61.6052 228.654C61.503 228.701 62.1249 229.671 62.9927 230.821C63.8612 231.972 64.6478 232.866 64.7501 232.819C64.8524 232.771 64.2312 231.801 63.3627 230.651C62.4949 229.501 61.7075 228.607 61.6052 228.654Z" fill="#263238"/>
<path d="M57.816 246.359C57.8453 246.407 58.6296 245.997 59.8516 245.256C61.0736 244.514 62.725 243.428 64.4892 242.147C66.2534 240.865 67.8093 239.654 68.9268 238.767C70.0435 237.879 70.7188 237.309 70.6834 237.261C70.6481 237.213 69.9081 237.698 68.7448 238.524C67.4762 239.446 65.9383 240.563 64.2373 241.799C62.4784 243.076 60.8631 244.196 59.687 245.001C58.5108 245.805 57.7836 246.306 57.816 246.359Z" fill="#263238"/>
<path d="M72.8818 265.156C75.9665 264.342 79.6438 267.341 80.2793 270.468C80.9154 273.595 79.7423 276.792 78.3699 279.673C75.3311 286.048 71.1372 291.961 65.6138 296.362C60.0903 300.764 53.1719 303.579 46.1091 303.543C47.4131 297.485 45.764 291.157 46.4911 285.004C47.1258 279.633 49.63 274.503 53.4727 270.697C57.3154 266.892 62.4719 264.44 67.8487 263.859C69.8174 263.647 72.096 263.338 72.8818 265.156Z" fill="#A06A00"/>
<path d="M46.1089 303.543C46.1157 303.556 46.2661 303.486 46.5481 303.339C46.8263 303.187 47.2287 302.942 47.7017 302.564C48.6702 301.829 49.7794 300.412 50.7473 298.491C51.2391 297.536 51.7888 296.499 52.3257 295.351C52.8469 294.199 53.4018 292.972 53.9854 291.683C54.5742 290.398 55.2209 289.063 56.0248 287.762C56.8249 286.458 57.7762 285.184 58.8313 283.945C60.9429 281.464 63.2094 279.318 65.1736 277.268C67.1484 275.225 68.8088 273.258 70.009 271.466C71.2212 269.681 71.9552 268.081 72.3718 266.953C72.5703 266.384 72.7132 265.939 72.7839 265.63C72.8621 265.323 72.8952 265.16 72.8809 265.157C72.841 265.145 72.6666 265.787 72.2154 266.892C71.7544 267.992 70.9888 269.55 69.7578 271.294C68.5388 273.046 66.8701 274.974 64.8886 276.992C62.9161 279.021 60.6368 281.161 58.5026 283.667C57.4371 284.918 56.4737 286.213 55.6646 287.542C54.8517 288.87 54.205 290.224 53.6237 291.52C53.0536 292.814 52.5107 294.045 52.0016 295.202C51.4842 296.345 50.9488 297.393 50.4765 298.352C49.5478 300.279 48.5108 301.674 47.5934 302.436C46.6932 303.214 46.0834 303.502 46.1089 303.543Z" fill="#263238"/>
<path d="M62.0603 298.509C62.1167 298.498 62.0197 297.703 61.7776 296.433C61.5362 295.163 61.1399 293.419 60.6052 291.52C60.069 289.619 59.4967 287.925 59.0403 286.715C58.5838 285.505 58.2514 284.776 58.198 284.796C58.1401 284.817 58.3718 285.583 58.753 286.813C59.135 288.044 59.6592 289.744 60.1923 291.635C60.7248 293.526 61.1654 295.249 61.482 296.499C61.7971 297.748 61.9994 298.521 62.0603 298.509Z" fill="#263238"/>
<path d="M46.6931 283.642C46.7119 283.7 47.5369 283.49 48.8664 283.142C50.1952 282.795 52.0308 282.32 54.0733 281.859C56.1157 281.4 57.9784 281.042 59.3275 280.786C60.6773 280.531 61.5136 280.367 61.5045 280.307C61.497 280.25 60.6458 280.307 59.2794 280.487C57.913 280.667 56.0322 280.98 53.9785 281.441C51.9256 281.905 50.0929 282.428 48.7815 282.851C47.47 283.275 46.6759 283.588 46.6931 283.642Z" fill="#263238"/>
<path d="M73.5065 287.961C73.5629 287.95 73.4441 287.031 73.1726 285.559C72.9011 284.086 72.4695 282.062 71.8927 279.85C71.3144 277.638 70.7015 275.661 70.2187 274.243C69.7352 272.826 69.39 271.966 69.3351 271.984C69.2772 272.004 69.5201 272.896 69.9285 274.333C70.3361 275.77 70.9008 277.754 71.4768 279.958C72.0514 282.162 72.5281 284.168 72.8748 285.622C73.2222 287.075 73.4471 287.973 73.5065 287.961Z" fill="#263238"/>
<path d="M53.7703 270.685C53.7831 270.803 57.6341 270.491 62.3702 269.988C67.1085 269.486 70.9385 268.983 70.9257 268.866C70.9129 268.748 67.0634 269.059 62.3243 269.561C57.5882 270.064 53.7575 270.567 53.7703 270.685Z" fill="#263238"/>
<path d="M56.5911 317.385C56.5911 317.503 70.1278 317.599 86.8222 317.599C103.523 317.599 117.056 317.503 117.056 317.385C117.056 317.266 103.523 317.17 86.8222 317.17C70.1278 317.17 56.5911 317.266 56.5911 317.385Z" fill="#455A64"/>
<path d="M66.009 334.805C66.009 334.924 75.13 335.019 86.3785 335.019C97.6306 335.019 106.749 334.923 106.749 334.805C106.749 334.687 97.6306 334.59 86.3785 334.59C75.13 334.59 66.009 334.686 66.009 334.805Z" fill="#455A64"/>
<path d="M66.3633 337.295C66.3633 337.414 75.3256 337.51 86.3778 337.51C97.4337 337.51 106.394 337.413 106.394 337.295C106.394 337.177 97.4337 337.081 86.3778 337.081C75.3249 337.08 66.3633 337.177 66.3633 337.295Z" fill="#455A64"/>
<path d="M65.6533 332.751C65.6533 332.87 75.0872 332.966 86.7221 332.966C98.3608 332.966 107.793 332.87 107.793 332.751C107.793 332.632 98.3608 332.537 86.7221 332.537C75.0872 332.537 65.6533 332.633 65.6533 332.751Z" fill="#455A64"/>
<path d="M336.551 359.6C336.551 359.709 270.037 359.796 188.007 359.796C105.949 359.796 39.4485 359.708 39.4485 359.6C39.4485 359.492 105.948 359.405 188.007 359.405C270.037 359.405 336.551 359.493 336.551 359.6Z" fill="#263238"/>
</svg>
